<?xml version="1.0" encoding="UTF-8"?>
<svg width="826px" height="678px" viewBox="0 0 826 678" version="1.1" xmlns="http://www.w3.org/2000/svg" xmlns:xlink="http://www.w3.org/1999/xlink">
    <!-- Generator: Sketch 52.3 (67297) - http://www.bohemiancoding.com/sketch -->
    <title>banner_logo</title>
    <desc>Created with Sketch.</desc>
    <defs>
        <rect id="path-1" x="0" y="0" width="826" height="678"></rect>
    </defs>
    <g id="Page-1" stroke="none" stroke-width="1" fill="none" fill-rule="evenodd">
        <g id="banner_logo">
            <mask id="mask-2" fill="white">
                <use xlink:href="#path-1"></use>
            </mask>
            <rect stroke="#979797" x="0.5" y="0.5" width="825" height="677"></rect>
            <g id="Group" mask="url(#mask-2)">
                <g transform="translate(-3.000000, 0.000000)">
                    <path d="M577,0 L671,0 C683.150264,-2.23196738e-15 693,9.8497355 693,22 L693,824 C693,836.150264 683.150264,846 671,846 L577,846 C564.849736,846 555,836.150264 555,824 L555,22 C555,9.8497355 564.849736,2.23196738e-15 577,0 Z" id="Rectangle" fill="#1AA4B2"></path>
                    <path d="M99,0 L193,0 C205.150264,-2.23196738e-15 215,9.8497355 215,22 L215,824 C215,836.150264 205.150264,846 193,846 L99,846 C86.8497355,846 77,836.150264 77,824 L77,22 C77,9.8497355 86.8497355,2.23196738e-15 99,0 Z" id="Rectangle-Copy" fill="#1AA4B2"></path>
                    <path d="M726.984415,491.19396 C726.859415,491.912199 726.733415,492.629191 726.608415,493.348677 C731.378415,494.301342 736.146415,495.255253 740.915415,496.209165 C741.013415,495.424838 741.112415,494.64051 741.211415,493.854936 C736.468415,492.96836 731.726415,492.081783 726.984415,491.19396 M673.789415,460.868304 C673.706415,461.475565 673.622415,462.084073 673.539415,462.691334 C689.855415,464.43082 706.172415,466.171553 722.489415,467.911038 C722.518415,467.483337 722.547415,467.056882 722.576415,466.629181 C706.313415,464.708888 690.051415,462.788596 673.789415,460.868304 M163.717253,527.051339 C162.982564,526.253511 162.248892,525.454399 161.472208,524.610625 C178.826573,520.786771 195.931965,517.016528 213.572153,513.129042 C212.178165,512.657428 211.082312,511.865974 210.102338,512.018727 C196.323728,514.173057 182.582625,516.640498 168.783904,518.614613 C163.474706,519.375205 158.045843,519.083172 152.392793,519.280581 L152.436746,520.539226 C152.118665,520.6227 151.650299,520.907312 151.511228,520.759949 C147.428817,516.443219 143.185498,519.663244 139.243727,520.621882 C129.11117,523.089328 119.136573,526.397201 109.021298,528.963859 C105.790028,529.784145 101.461795,527.894048 99.1327936,529.775814 C94.7962903,533.279827 91.8283245,528.186787 87.6649651,529.039622 C88.8034253,530.351129 89.732582,531.421652 90.8256015,532.679846 C86.8862777,531.456166 83.2488771,530.325502 78.962477,528.994163 C79.9130261,530.555534 80.3719499,531.309341 80.4712461,531.474313 C75.0602482,532.424368 69.4889134,533.439912 63.9071012,534.368483 C58.783937,535.221147 53.7564591,537.596411 48.4545686,535.796462 C47.2272186,535.378919 46.1247774,534.429236 44.4991296,533.441678 C47.5799916,531.571087 49.9468224,530.13343 53.7562299,527.819417 C50.8538163,527.738607 49.175852,527.65746 47.4995676,527.65486 C45.935944,527.652069 44.0882681,528.402828 42.858314,527.667212 C36.060578,523.605009 30.9154116,528.575862 25.3663407,531.416018 C19.5259557,534.40609 13.7007642,537.435558 7.98031434,540.390249 C4.05258299,532.376164 7.50793325,527.319587 11.6613526,523.747105 C23.9471167,513.176746 36.6257493,503.233986 49.1580613,493.058025 C50.8707518,491.668165 52.6229921,490.345548 54.5495693,488.840916 C53.6129389,487.921626 53.0163991,487.336074 52.1480253,486.484272 C54.1845125,484.839803 55.9413439,483.070348 57.946134,481.857443 C71.1833335,473.847833 84.2283001,465.294699 97.9157164,458.489621 C101.403174,456.757052 101.043281,453.23862 103.53331,451.706826 C108.428056,448.696125 112.9772,444.859037 117.998115,442.204516 C128.508424,436.644548 139.232285,431.629854 149.842136,426.4245 C151.563638,424.556462 153.311653,422.656306 155.06073,420.756112 C159.994003,418.209459 164.745673,414.784527 169.915552,413.382489 C174.417857,412.160974 178.976189,411.661171 183.297699,409.31056 C187.844512,406.837292 192.618999,404.735376 197.476322,403.270639 C207.998753,400.097103 218.579426,397.099955 229.242507,394.636441 C247.950589,390.313646 266.712206,386.275952 285.501,382.43819 C301.766422,379.116508 318.04325,375.725804 334.426152,373.333302 C346.095754,371.629427 357.966597,371.731437 369.71552,370.624937 C375.254148,370.103378 380.688878,368.341487 386.222242,367.66914 C393.096568,366.832681 400.037146,366.706347 406.922647,365.9768 C416.365571,364.975782 425.769038,363.514491 435.215592,362.58696 C445.415293,361.585716 455.736618,361.693176 465.844903,360.052558 C493.155377,355.617763 520.730637,356.330479 548.176312,354.702038 C573.578014,353.194883 599.045578,352.691076 624.495897,352.484825 C649.842048,352.278469 675.221485,352.264344 700.549269,353.5409 C718.950725,354.469165 737.325882,357.292362 755.640012,360.011635 C761.045271,360.814804 766.164856,364.273079 771.480036,366.270949 C776.558268,368.179773 781.73433,369.724594 786.82772,371.580485 C787.297107,371.751249 787.483794,373.018635 787.823479,373.827762 L795.092292,373.573929 C795.347022,374.20261 795.599584,374.830119 795.854357,375.460046 C793.367523,378.361707 790.878653,381.265934 788.440862,384.110983 C792.319434,385.756012 796.361006,387.472707 800.71651,389.321926 C797.763761,393.248001 794.691138,397.332977 791.088292,402.122705 C795.091851,403.17695 798.03341,403.952611 801.124011,404.76549 C798.887931,413.143297 791.888824,411.897954 786.600116,416.958663 C794.251763,418.323458 800.753612,419.482606 807.255503,420.643001 C807.282168,421.041335 807.308833,421.439669 807.335498,421.838003 L787.364597,429.04966 C787.45273,429.473297 787.540864,429.896934 787.627893,430.319361 C792.427121,430.813051 797.227367,431.305458 802.026594,431.799148 C802.06211,432.268292 802.095458,432.736264 802.130973,433.205408 C796.964502,434.218043 791.799135,435.231887 786.632708,436.245768 C786.643875,436.748203 786.652964,437.251957 786.66307,437.754429 C788.757414,438.345071 790.85282,438.935676 793.927245,439.802771 C788.416374,441.362697 783.86856,442.650682 779.321807,443.938629 C779.377189,444.550565 779.433589,445.161218 779.488971,445.773154 C787.650801,446.285419 795.812674,446.79893 803.975609,447.312404 C803.980877,447.767632 803.986188,448.224106 803.991456,448.679333 L782.441925,449.431859 C788.98098,458.59622 798.079304,452.170993 804.473554,458.923609 C789.36614,458.242147 774.258771,457.561931 757.751473,456.818309 C772.56505,460.195089 786.521442,460.027133 800.276881,466.340526 C793.356163,469.166196 793.356163,469.166196 794.832269,472.141577 C791.065929,473.558235 787.328965,474.963885 783.593062,476.369499 C783.501654,476.795662 783.409184,477.221862 783.318794,477.646743 C787.438011,479.182305 791.557227,480.717867 796.988147,482.742888 C775.153524,490.763259 754.422221,485.635485 733.731132,483.272463 C746.1818,487.803535 759.207573,488.958202 770.628859,497.036257 C767.195211,496.26156 763.784272,495.224052 760.323547,494.769712 C753.324034,493.847538 746.278301,493.458499 739.289411,492.444872 C732.03559,491.393083 724.629274,490.692234 717.651382,488.319474 C709.806522,485.652586 702.382217,484.619228 694.286634,486.52145 C689.057581,487.750876 683.354858,486.099676 677.881846,486.27832 C659.952102,486.865762 642.028895,487.701268 624.102615,488.41835 C623.778869,488.430903 623.442816,488.151924 623.110489,488.010061 C623.109428,488.010098 623.114807,488.194571 623.114807,488.194571 C621.303434,488.889163 619.490956,489.582546 617.679583,490.277139 L617.87269,490.145625 C616.669221,490.19888 615.465752,490.252136 614.262239,490.304145 L614.162143,490.298906 L610.020107,490.453531 L609.911562,490.449835 C608.533685,490.500447 607.153685,490.551133 605.774703,490.600536 L605.666158,490.59684 C604.287219,490.647489 602.90828,490.698138 601.52828,490.748824 L601.419735,490.745129 C600.041858,490.795741 598.663938,490.845106 597.286017,490.894472 L597.176454,490.89206 C595.796454,490.942746 594.416497,490.994678 593.036497,491.045364 L592.926891,491.041705 C591.545785,491.091182 590.163619,491.140696 588.781495,491.191457 L588.676048,491.185157 C587.296048,491.235843 585.916048,491.286529 584.537066,491.335932 L584.429713,491.335938 C583.314766,491.367387 582.200881,491.398798 581.085934,491.430247 C580.788319,491.460603 580.490312,491.479743 580.190765,491.485213 C578.809747,491.537182 577.427624,491.587942 576.046562,491.638666 L575.939079,491.634933 C574.561202,491.685545 573.181245,491.737477 571.801201,491.786917 L571.693718,491.783184 C570.158619,491.866736 568.624582,491.95025 567.090632,492.036257 L567.487375,491.922587 C565.58966,492.001333 563.69399,492.138651 561.796004,492.148783 C542.694905,492.248103 523.569802,491.781804 504.494544,492.56022 C484.563805,493.373501 464.674834,495.321981 444.774539,496.885316 C430.309846,498.020524 415.82895,499.026537 401.40454,500.645695 C382.567283,502.760824 363.7935,505.567459 344.966833,507.803246 C328.957936,509.704817 312.901689,511.102723 296.885046,512.934693 C281.343759,514.712633 265.845531,516.993141 250.291243,518.611829 C237.902521,519.902873 225.436861,520.299504 213.040612,521.527178 C204.15677,522.406361 195.350432,524.196156 186.476102,525.22598 C178.934548,526.100711 171.3456,526.47053 163.781428,527.062823 C163.784613,527.062711 163.717253,527.051339 163.717253,527.051339" id="Fill-4" fill="#14818C" transform="translate(406.796202, 446.385413) rotate(184.000000) translate(-406.796202, -446.385413) "></path>
                </g>
            </g>
        </g>
    </g>
</svg>