<?xml version="1.0" encoding="UTF-8"?>
<svg width="1250px" height="2999px" viewBox="0 0 1250 2999" version="1.1" xmlns="http://www.w3.org/2000/svg" xmlns:xlink="http://www.w3.org/1999/xlink">
    <!-- Generator: Sketch 52.3 (67297) - http://www.bohemiancoding.com/sketch -->
    <title>light_path</title>
    <desc>Created with Sketch.</desc>
    <defs>
        <path d="M230.485465,2996 C230.485465,2660.64075 700.29153,2759.17305 932.897709,2640.91348 C1165.50389,2522.65391 1328.56998,2119.02931 1077.51594,1939.53259 C826.461908,1760.03587 400.82202,1860.24169 307.35791,1669.27348 C213.8938,1478.30527 183.980025,1158.88674 382,1079.61725 C580.019975,1000.34776 849.909475,1100.27986 975,914.334825 C1100.09053,728.389793 1171.70119,452.684282 1005.15109,307.522293 C838.60098,162.360305 450.03527,151.578755 224.03527,147.111662 C171.177307,146.066877 96.6162476,145.788724 0.35209103,146.277203" id="path-1"></path>
        <linearGradient x1="50%" y1="96.3112309%" x2="50%" y2="41.6246448%" id="linearGradient-2">
            <stop stop-color="#FFFFFF" stop-opacity="0.158004982" offset="0%"></stop>
            <stop stop-color="#FFFFFF" stop-opacity="0" offset="100%"></stop>
        </linearGradient>
        <path d="M805.964706,267.940629 C805.158832,268.218722 804.324738,268.364706 803.470588,268.364706 C796.583273,268.364706 791,258.873143 791,247.164706 C791,239.181835 793.595429,232.229496 797.430018,228.613347 C797.302068,227.753659 797.235294,226.86854 797.235294,225.964706 C797.235294,217.699927 802.818567,211 809.705882,211 C816.593198,211 822.176471,217.699927 822.176471,225.964706 C822.176471,228.373613 821.702156,230.649581 820.859485,232.665462 C825.301173,235.909447 828.411765,243.413654 828.411765,252.152941 C828.411765,263.861378 822.828492,273.352941 815.941176,273.352941 C814.637743,273.352941 813.381016,273.012991 812.2,272.3824 L812.2,297.047059 L805.964706,297.047059 L805.964706,267.940629 Z" id="path-3"></path>
        <path d="M509.964706,57.9373384 C509.158832,58.215431 508.324738,58.3614153 507.470588,58.3614153 C500.583273,58.3614153 495,48.869852 495,37.1614153 C495,29.1785447 497.595429,22.2262055 501.430018,18.6100565 C501.302068,17.7503684 501.235294,16.8652493 501.235294,15.9614153 C501.235294,7.69663641 506.818567,0.996709376 513.705882,0.996709376 C520.593198,0.996709376 526.176471,7.69663641 526.176471,15.9614153 C526.176471,18.3703221 525.702156,20.6462904 524.859485,22.6621712 C529.301173,25.9061563 532.411765,33.4103635 532.411765,42.1496506 C532.411765,53.8580872 526.828492,63.3496506 519.941176,63.3496506 C518.637743,63.3496506 517.381016,63.0097004 516.2,62.3791097 L516.2,87.0437682 L509.964706,87.0437682 L509.964706,57.9373384 Z" id="path-4"></path>
        <path d="M1157.96471,385.89357 C1157.15883,386.171663 1156.32474,386.317647 1155.47059,386.317647 C1148.58327,386.317647 1143,376.826084 1143,365.117647 C1143,357.134776 1145.59543,350.182437 1149.43002,346.566288 C1149.30207,345.7066 1149.23529,344.821481 1149.23529,343.917647 C1149.23529,335.652868 1154.81857,328.952941 1161.70588,328.952941 C1168.5932,328.952941 1174.17647,335.652868 1174.17647,343.917647 C1174.17647,346.326554 1173.70216,348.602522 1172.85948,350.618403 C1177.30117,353.862388 1180.41176,361.366595 1180.41176,370.105882 C1180.41176,381.814319 1174.82849,391.305882 1167.94118,391.305882 C1166.63774,391.305882 1165.38102,390.965932 1164.2,390.335342 L1164.2,415 L1157.96471,415 L1157.96471,385.89357 Z" id="path-5"></path>
        <path d="M144.964706,216.89357 C144.158832,217.171663 143.324738,217.317647 142.470588,217.317647 C135.583273,217.317647 130,207.826084 130,196.117647 C130,188.134776 132.595429,181.182437 136.430018,177.566288 C136.302068,176.7066 136.235294,175.821481 136.235294,174.917647 C136.235294,166.652868 141.818567,159.952941 148.705882,159.952941 C155.593198,159.952941 161.176471,166.652868 161.176471,174.917647 C161.176471,177.326554 160.702156,179.602522 159.859485,181.618403 C164.301173,184.862388 167.411765,192.366595 167.411765,201.105882 C167.411765,212.814319 161.828492,222.305882 154.941176,222.305882 C153.637743,222.305882 152.381016,221.965932 151.2,221.335342 L151.2,246 L144.964706,246 L144.964706,216.89357 Z" id="path-6"></path>
        <path d="M87.9915409,53 C87.9971652,52.8340257 88,52.6673439 88,52.5 C88,44.4918711 81.5081289,38 73.5,38 C65.4918711,38 59,44.4918711 59,52.5 C59,52.6673439 59.0028348,52.8340257 59.0084591,53 L35.9915409,53 C35.9971652,52.8340257 36,52.6673439 36,52.5 C36,44.4918711 29.5081289,38 21.5,38 C13.4918711,38 7,44.4918711 7,52.5 C7,52.6673439 7.00283483,52.8340257 7.0084591,53 C3.13400675,53 4.73447626e-16,49.8659932 0,46 L0,39.5 C-9.13077564e-16,32.0441559 6.04415588,26 13.5,26 L20.3932978,26 L30.027548,9.93347074 C33.7119718,3.78915209 40.4014954,0.0849234788 47.5645022,0.222631574 L69.8034255,0.650172663 C80.1186353,0.848481547 88.5902809,8.86068925 89.3628466,19.1488389 L89.8825705,26.0699301 C96.6889366,26.7623142 102,32.5109244 102,39.5 L102,46 C102,49.8659932 98.8659932,53 95,53 L87.9915409,53 Z" id="path-7"></path>
    </defs>
    <g id="portfolio" stroke="none" stroke-width="1" fill="none" fill-rule="evenodd">
        <g id="light_path" transform="translate(0.000000, -40.000000)">
            <rect id="Rectangle" x="2" y="0" width="1400" height="2741"></rect>
            <g transform="translate(0.000000, 43.000000)">
                <g>
                    <use stroke="#F2F4F8" stroke-width="91" xlink:href="#path-1"></use>
                    <use stroke="#FFFFFF" stroke-width="71" xlink:href="#path-1"></use>
                </g>
                <g id="Group-3" transform="translate(460.000000, 873.000000)" fill-rule="nonzero">
                    <g id="Group-11" fill="#395484">
                        <path d="M0.261708364,76.9971573 L0,76.9971573 L1.41929742e-17,76.8544675 C0.087215911,76.9026545 0.174471397,76.9502113 0.261708364,76.9971573 Z M42.5351656,0.99716196 L65.0035878,0.997185748 C71.0767405,0.997187634 76.000002,5.74306756 76,11.5974052 C75.9999997,12.5265051 75.8732839,13.4515728 75.6231099,14.3488288 C73.69953,21.2478029 68.1116694,24.9011684 60.037309,24.9011684 C49.8874248,24.9011684 43.8412315,19.3351923 42.5341962,9.50333975 L42.5351656,0.99716196 Z M60.037309,16.4209794 C64.3244581,16.4209794 66.2952526,15.1324662 67.1274733,12.147683 C67.1775077,11.9682332 67.2028507,11.7832211 67.2028507,11.5974025 C67.2028511,10.4265439 66.2182063,9.47737509 65.0035816,9.47737471 L51.3863174,9.47736029 C52.2682149,14.434287 54.9916325,16.4209794 60.037309,16.4209794 Z" id="Combined-Shape"></path>
                    </g>
                    <path d="M69.6666717,44.3864048 C69.6867384,46.7368421 67.7997399,48.6585336 65.4519427,48.6786228 C63.1041455,48.698712 61.1846125,46.8095916 61.1645459,44.4591543 C61.1246785,39.7894214 57.290108,35.950539 52.6256204,35.9106267 C50.2778231,35.8905375 48.3908247,33.9688461 48.4108913,31.6184088 C48.4309579,29.2679715 50.3504909,27.3788511 52.6982881,27.3989403 C62.0017145,27.4785461 69.5871553,35.0725168 69.6666717,44.3864048 Z" id="Oval-Copy-36" fill="#4F8CF8" transform="translate(59.038782, 38.038782) rotate(-225.000000) translate(-59.038782, -38.038782) "></path>
                    <path d="M76.6418532,65.9476212 C76.6620884,68.2519718 74.7592326,70.1359833 72.3917057,70.1556786 C70.0241788,70.1753739 68.0885151,68.3232948 68.0682798,66.0189442 C67.9578515,53.4436044 57.3734027,43.1415964 44.4532961,43.0341149 C42.0857692,43.0144196 40.1829133,41.1304081 40.2031486,38.8260575 C40.2233839,36.5217069 42.1590476,34.6696279 44.5265745,34.6893232 C62.1246031,34.83572 76.4914427,48.8191874 76.6418532,65.9476212 Z" id="Oval-Copy-37" fill="#4F8CF8" transform="translate(58.422501, 52.422501) rotate(-225.000000) translate(-58.422501, -52.422501) "></path>
                    <path d="M65.2947369,9.49863169 C65.1994739,9.4864857 65.1022871,9.48021748 65.0035816,9.48021745 L51.3863174,9.48020303 C51.3874111,9.48635049 51.3885076,9.49249338 51.389607,9.4986317 L42.5331925,9.49863169 C42.5323783,9.49248735 42.531565,9.48634133 42.5307536,9.48019366 L38.0962252,9.48018896 C21.9147924,9.48018896 8.79714926,22.1252049 8.79714926,37.7236225 L8.79714926,77 L-4.68958206e-13,77 L-4.65051487e-13,37.7236225 C-4.67493186e-13,17.4417258 17.056261,1 38.0962301,1 L65.0035878,1.00002849 C65.3118039,1.00002858 65.6170584,1.01225227 65.9188579,1.03622408 L65.9188579,9.49863169 L65.2947369,9.49863169 Z" id="Combined-Shape" fill="#395484"></path>
                </g>
                <g id="Combined-Shape-Copy-6">
                    <use fill="#F2F4F8" xlink:href="#path-3"></use>
                    <path stroke="#FFFFFF" stroke-width="4" d="M803.964706,270.351826 C803.800399,270.360402 803.635672,270.364706 803.470588,270.364706 C795.195338,270.364706 789,259.832631 789,247.164706 C789,239.33374 791.38471,232.149819 795.327801,227.895401 C795.266301,227.2576 795.235294,226.613311 795.235294,225.964706 C795.235294,216.667794 801.625122,209 809.705882,209 C817.786642,209 824.176471,216.667794 824.176471,225.964706 C824.176471,228.063701 823.851464,230.111452 823.227285,232.028177 C827.661046,236.108888 830.411765,243.741892 830.411765,252.152941 C830.411765,264.820867 824.216427,275.352941 815.941176,275.352941 C815.354567,275.352941 814.773304,275.298653 814.2,275.191791 L814.2,299.047059 L803.964706,299.047059 L803.964706,270.351826 Z" fill="url(#linearGradient-2)"></path>
                </g>
                <g id="Combined-Shape-Copy-7">
                    <use fill="#F2F4F8" xlink:href="#path-4"></use>
                    <path stroke="#FFFFFF" stroke-width="4" d="M507.964706,60.3485359 C507.800399,60.3571119 507.635672,60.3614153 507.470588,60.3614153 C499.195338,60.3614153 493,49.8293407 493,37.1614153 C493,29.330449 495.38471,22.1465287 499.327801,17.8921101 C499.266301,17.254309 499.235294,16.6100204 499.235294,15.9614153 C499.235294,6.66450325 505.625122,-1.00329062 513.705882,-1.00329062 C521.786642,-1.00329062 528.176471,6.66450325 528.176471,15.9614153 C528.176471,18.0604102 527.851464,20.1081615 527.227285,22.0248868 C531.661046,26.1055978 534.411765,33.7386013 534.411765,42.1496506 C534.411765,54.817576 528.216427,65.3496506 519.941176,65.3496506 C519.354567,65.3496506 518.773304,65.2953624 518.2,65.1885005 L518.2,89.0437682 L507.964706,89.0437682 L507.964706,60.3485359 Z" fill="url(#linearGradient-2)"></path>
                </g>
                <g id="Combined-Shape-Copy-5">
                    <use fill="#F2F4F8" xlink:href="#path-5"></use>
                    <use fill="url(#linearGradient-2)" xlink:href="#path-5"></use>
                </g>
                <g id="Combined-Shape-Copy-2">
                    <use fill="#F2F4F8" xlink:href="#path-6"></use>
                    <path stroke="#FFFFFF" stroke-width="4" d="M142.964706,219.304768 C142.800399,219.313344 142.635672,219.317647 142.470588,219.317647 C134.195338,219.317647 128,208.785573 128,196.117647 C128,188.286681 130.38471,181.10276 134.327801,176.848342 C134.266301,176.210541 134.235294,175.566252 134.235294,174.917647 C134.235294,165.620735 140.625122,157.952941 148.705882,157.952941 C156.786642,157.952941 163.176471,165.620735 163.176471,174.917647 C163.176471,177.016642 162.851464,179.064393 162.227285,180.981119 C166.661046,185.06183 169.411765,192.694833 169.411765,201.105882 C169.411765,213.773808 163.216427,224.305882 154.941176,224.305882 C154.354567,224.305882 153.773304,224.251594 153.2,224.144732 L153.2,248 L142.964706,248 L142.964706,219.304768 Z" fill="url(#linearGradient-2)"></path>
                </g>
                <g id="Group-8-Copy" transform="translate(954.000000, 108.000000)" fill-rule="nonzero">
                    <g id="Group-15-Copy-4">
                        <path d="M57.6674153,14.8149871 C61.7853348,14.8149871 63.6783347,13.5773362 64.4777046,10.7103734 C64.525764,10.5380072 64.5501066,10.3602981 64.5501066,10.1818145 C64.550107,9.05717397 63.6043298,8.14547239 62.4376507,8.14547202 L49.3579101,8.14545818 C50.2049959,12.9067167 52.8209101,14.8149871 57.6674153,14.8149871 Z M40.8519081,8.14544917 L36.5924269,8.14544466 C21.0497348,8.14544466 8.44989337,20.2913152 8.44989337,35.2740059 L8.44989337,73 L0,73 L3.75250647e-15,35.2740059 C1.40718993e-15,15.7927104 16.3829876,-2.45253217e-12 36.5924315,0 L62.4376567,2.73631738e-05 C68.2710797,2.91752755e-05 73.0000019,4.55857173 73,10.1818171 C72.9999997,11.074242 72.8782858,11.9627939 72.6379872,12.8246318 C70.790338,19.4512781 65.4230508,22.9604317 57.6674153,22.9604317 C47.9095975,22.9604317 42.1004294,17.6047434 40.8519081,8.14544917 Z" id="Path-7" fill="#395484"></path>
                        <path d="M66.9998433,41.7641019 C67.0196682,44.0836124 65.1554047,45.9800185 62.8358942,45.9998433 C60.5163836,46.0196682 58.6199776,44.1554047 58.6001527,41.8358942 C58.5607657,37.2276052 54.7723948,33.4392343 50.1641058,33.3998473 C47.8445953,33.3800224 45.9803318,31.4836164 46.0001567,29.1641058 C46.0199815,26.8445953 47.9163876,24.9803318 50.2358981,25.0001567 C59.4272349,25.0787151 66.9212849,32.5727651 66.9998433,41.7641019 Z" id="Oval-Copy-36" fill="#4F8CF8" transform="translate(56.500000, 35.500000) rotate(-225.000000) translate(-56.500000, -35.500000) "></path>
                        <path d="M73.999842,62.8471582 C74.0198335,65.1211884 72.1399036,66.9804103 69.8009011,66.9998464 C67.4618986,67.0192826 65.5495562,65.191573 65.5295647,62.9175428 C65.4204669,50.5076679 54.9635416,40.3412127 42.1990989,40.2351454 C39.8600964,40.2157093 37.9801665,38.3564874 38.000158,36.0824572 C38.0201495,33.808427 39.9324919,31.9807174 42.2714944,32.0001536 C59.6574986,32.1446242 73.8512437,45.9440986 73.999842,62.8471582 Z" id="Oval-Copy-37" fill="#4F8CF8" transform="translate(56.000000, 49.500000) rotate(-225.000000) translate(-56.000000, -49.500000) "></path>
                    </g>
                </g>
                <g id="Group-8" transform="translate(108.000000, 7.000000)" fill-rule="nonzero">
                    <g id="Group-15-Copy-4">
                        <path d="M57.6674153,14.8149871 C61.7853348,14.8149871 63.6783347,13.5773362 64.4777046,10.7103734 C64.525764,10.5380072 64.5501066,10.3602981 64.5501066,10.1818145 C64.550107,9.05717397 63.6043298,8.14547239 62.4376507,8.14547202 L49.3579101,8.14545818 C50.2049959,12.9067167 52.8209101,14.8149871 57.6674153,14.8149871 Z M40.8519081,8.14544917 L36.5924269,8.14544466 C21.0497348,8.14544466 8.44989337,20.2913152 8.44989337,35.2740059 L8.44989337,73 L0,73 L3.75250647e-15,35.2740059 C1.40718993e-15,15.7927104 16.3829876,-2.45253217e-12 36.5924315,0 L62.4376567,2.73631738e-05 C68.2710797,2.91752755e-05 73.0000019,4.55857173 73,10.1818171 C72.9999997,11.074242 72.8782858,11.9627939 72.6379872,12.8246318 C70.790338,19.4512781 65.4230508,22.9604317 57.6674153,22.9604317 C47.9095975,22.9604317 42.1004294,17.6047434 40.8519081,8.14544917 Z" id="Path-7" fill="#395484"></path>
                        <path d="M66.9998433,41.7641019 C67.0196682,44.0836124 65.1554047,45.9800185 62.8358942,45.9998433 C60.5163836,46.0196682 58.6199776,44.1554047 58.6001527,41.8358942 C58.5607657,37.2276052 54.7723948,33.4392343 50.1641058,33.3998473 C47.8445953,33.3800224 45.9803318,31.4836164 46.0001567,29.1641058 C46.0199815,26.8445953 47.9163876,24.9803318 50.2358981,25.0001567 C59.4272349,25.0787151 66.9212849,32.5727651 66.9998433,41.7641019 Z" id="Oval-Copy-36" fill="#4F8CF8" transform="translate(56.500000, 35.500000) rotate(-225.000000) translate(-56.500000, -35.500000) "></path>
                        <path d="M73.999842,62.8471582 C74.0198335,65.1211884 72.1399036,66.9804103 69.8009011,66.9998464 C67.4618986,67.0192826 65.5495562,65.191573 65.5295647,62.9175428 C65.4204669,50.5076679 54.9635416,40.3412127 42.1990989,40.2351454 C39.8600964,40.2157093 37.9801665,38.3564874 38.000158,36.0824572 C38.0201495,33.808427 39.9324919,31.9807174 42.2714944,32.0001536 C59.6574986,32.1446242 73.8512437,45.9440986 73.999842,62.8471582 Z" id="Oval-Copy-37" fill="#4F8CF8" transform="translate(56.000000, 49.500000) rotate(-225.000000) translate(-56.000000, -49.500000) "></path>
                    </g>
                </g>
                <g id="Group-8-Copy-2" transform="translate(495.000000, 182.000000)" fill-rule="nonzero">
                    <g id="Group-15-Copy-4">
                        <path d="M57.6674153,14.8149871 C61.7853348,14.8149871 63.6783347,13.5773362 64.4777046,10.7103734 C64.525764,10.5380072 64.5501066,10.3602981 64.5501066,10.1818145 C64.550107,9.05717397 63.6043298,8.14547239 62.4376507,8.14547202 L49.3579101,8.14545818 C50.2049959,12.9067167 52.8209101,14.8149871 57.6674153,14.8149871 Z M40.8519081,8.14544917 L36.5924269,8.14544466 C21.0497348,8.14544466 8.44989337,20.2913152 8.44989337,35.2740059 L8.44989337,73 L0,73 L3.75250647e-15,35.2740059 C1.40718993e-15,15.7927104 16.3829876,-2.45253217e-12 36.5924315,0 L62.4376567,2.73631738e-05 C68.2710797,2.91752755e-05 73.0000019,4.55857173 73,10.1818171 C72.9999997,11.074242 72.8782858,11.9627939 72.6379872,12.8246318 C70.790338,19.4512781 65.4230508,22.9604317 57.6674153,22.9604317 C47.9095975,22.9604317 42.1004294,17.6047434 40.8519081,8.14544917 Z" id="Path-7" fill="#395484"></path>
                        <path d="M66.9998433,41.7641019 C67.0196682,44.0836124 65.1554047,45.9800185 62.8358942,45.9998433 C60.5163836,46.0196682 58.6199776,44.1554047 58.6001527,41.8358942 C58.5607657,37.2276052 54.7723948,33.4392343 50.1641058,33.3998473 C47.8445953,33.3800224 45.9803318,31.4836164 46.0001567,29.1641058 C46.0199815,26.8445953 47.9163876,24.9803318 50.2358981,25.0001567 C59.4272349,25.0787151 66.9212849,32.5727651 66.9998433,41.7641019 Z" id="Oval-Copy-36" fill="#4F8CF8" transform="translate(56.500000, 35.500000) rotate(-225.000000) translate(-56.500000, -35.500000) "></path>
                        <path d="M73.999842,62.8471582 C74.0198335,65.1211884 72.1399036,66.9804103 69.8009011,66.9998464 C67.4618986,67.0192826 65.5495562,65.191573 65.5295647,62.9175428 C65.4204669,50.5076679 54.9635416,40.3412127 42.1990989,40.2351454 C39.8600964,40.2157093 37.9801665,38.3564874 38.000158,36.0824572 C38.0201495,33.808427 39.9324919,31.9807174 42.2714944,32.0001536 C59.6574986,32.1446242 73.8512437,45.9440986 73.999842,62.8471582 Z" id="Oval-Copy-37" fill="#4F8CF8" transform="translate(56.000000, 49.500000) rotate(-225.000000) translate(-56.000000, -49.500000) "></path>
                    </g>
                </g>
                <g id="Group-9-Copy" transform="translate(298.000000, 121.000000) scale(-1, 1) translate(-298.000000, -121.000000) translate(247.000000, 89.000000)">
                    <g id="Combined-Shape">
                        <use fill="#F2F4F8" xlink:href="#path-7"></use>
                        <path stroke="#FFFFFF" stroke-width="4" d="M19.2605745,24 L28.3122953,8.90492415 C32.3651615,2.14617363 39.7236374,-1.92847784 47.6029449,-1.77699893 L69.8418682,-1.34945784 C81.188599,-1.13131807 90.5074092,7.6821104 91.3572314,18.999075 L91.7585293,24.3431031 C98.798012,25.8471939 104,32.1050096 104,39.5 L104,46 C104,50.9705627 99.9705627,55 95,55 L85.9226202,55 L85.9926882,52.9322662 C85.9975589,52.788531 86,52.6444303 86,52.5 C86,45.5964406 80.4035594,40 73.5,40 C66.5964406,40 61,45.5964406 61,52.5 C61,52.6444303 61.0024411,52.788531 61.0073118,52.9322662 L61.0773798,55 L33.9226202,55 L33.9926882,52.9322662 C33.9975589,52.788531 34,52.6444303 34,52.5 C34,45.5964406 28.4035594,40 21.5,40 C14.5964406,40 9,45.5964406 9,52.5 C9,52.6444303 9.00244114,52.788531 9.0073118,52.9322662 L9.07737978,55 L7.0084591,55 C2.03111866,55 -2,50.9722434 -2,46 L-2,39.5 C-2,30.9395864 4.93958638,24 13.5,24 L19.2605745,24 Z" fill="url(#linearGradient-2)"></path>
                    </g>
                    <path d="M42.8328426,9 L51,9 C53.209139,9 55,10.790861 55,13 L55,26 L29,26 L34.7217266,14.1000261 C36.2206753,10.9825317 39.3737071,9 42.8328426,9 Z" id="Rectangle" fill="#FFFFFF"></path>
                    <path d="M70,9 L78,9 C80.209139,9 82,10.790861 82,13 L82,26 L58,26 L58,21 C58,14.372583 63.372583,9 70,9 Z" id="Rectangle-Copy-5" fill="#FFFFFF" transform="translate(70.000000, 17.500000) scale(-1, 1) translate(-70.000000, -17.500000) "></path>
                    <circle id="Oval" fill="#F2F4F8" cx="21.5" cy="52.5" r="11.5"></circle>
                    <circle id="Oval-Copy-4" fill="#F2F4F8" cx="73.5" cy="52.5" r="11.5"></circle>
                </g>
            </g>
        </g>
    </g>
</svg>