<?xml version="1.0" encoding="UTF-8"?>
<svg width="1038px" height="313px" viewBox="0 0 1038 313" version="1.1" xmlns="http://www.w3.org/2000/svg" xmlns:xlink="http://www.w3.org/1999/xlink">
    <!-- Generator: Sketch 52.3 (67297) - http://www.bohemiancoding.com/sketch -->
    <title>hood_binding</title>
    <desc>Created with Sketch.</desc>
    <g id="Portfolio" stroke="none" stroke-width="1" fill="none" fill-rule="evenodd">
        <g id="Artboard-Copy-2" transform="translate(-281.000000, -2384.000000)">
            <g id="hood_binding" transform="translate(281.000000, 2384.000000)">
                <g id="Group-6" transform="translate(0.000000, 30.000000)" fill="#444444">
                    <path d="M19.4015748,5.28853755 C11.6087065,5.28853755 5.29133858,11.6025613 5.29133858,19.3913043 L5.29133858,203.608696 C5.29133858,211.397439 11.6087065,217.711462 19.4015748,217.711462 L92.5984252,217.711462 C100.391293,217.711462 106.708661,211.397439 106.708661,203.608696 L106.708661,19.3913043 C106.708661,11.6025613 100.391293,5.28853755 92.5984252,5.28853755 L19.4015748,5.28853755 Z M19.4015748,0 L92.5984252,0 C103.313619,-1.95715205e-15 112,8.68178268 112,19.3913043 L112,203.608696 C112,214.318217 103.313619,223 92.5984252,223 L19.4015748,223 C8.68638092,223 7.44111684e-15,214.318217 6.26620365e-15,203.608696 L0,19.3913043 C-1.17491319e-15,8.68178268 8.68638092,1.95715205e-15 19.4015748,0 Z" id="Rectangle" fill-rule="nonzero"></path>
                    <path d="M56,214 C51.0294373,214 47,209.970563 47,205 C47,200.029437 51.0294373,196 56,196 C60.9705627,196 65,200.029437 65,205 C65,209.970563 60.9705627,214 56,214 Z M56,211.428571 C59.550402,211.428571 62.4285714,208.550402 62.4285714,205 C62.4285714,201.449598 59.550402,198.571429 56,198.571429 C52.449598,198.571429 49.5714286,201.449598 49.5714286,205 C49.5714286,208.550402 52.449598,211.428571 56,211.428571 Z" id="Oval" fill-rule="nonzero"></path>
                    <circle id="Oval" cx="40" cy="19" r="2"></circle>
                    <rect id="Rectangle" x="44" y="17" width="25" height="4" rx="2"></rect>
                    <rect id="Rectangle" x="12" y="31" width="89" height="161"></rect>
                </g>
                <g id="Group-7" transform="translate(932.000000, 130.000000) scale(-1, 1) translate(-932.000000, -130.000000) translate(826.000000, 44.000000)">
                    <g id="Group-5" opacity="0.100000001" fill="#000000" fill-rule="nonzero">
                        <path d="M19.3063653,0.968584844 C21.2075095,-0.552382963 23.9855497,-0.24901155 25.5112917,1.64618386 C27.0370337,3.54137927 26.73271,6.31072673 24.8315658,7.83169454 C14.6002317,16.0170438 8.82758621,26.9358736 8.82758621,38.5 C8.82758621,50.0641264 14.6002317,60.9829562 24.8315658,69.1683055 C26.73271,70.6892733 27.0370337,73.4586207 25.5112917,75.3538161 C23.9855497,77.2490115 21.2075095,77.552383 19.3063653,76.0314152 C7.0747778,66.245808 0,52.8640242 0,38.5 C0,24.1359758 7.0747778,10.754192 19.3063653,0.968584844 Z M108.693635,76.0314152 C106.79249,77.552383 104.01445,77.2490115 102.488708,75.3538161 C100.962966,73.4586207 101.26729,70.6892733 103.168434,69.1683055 C113.399768,60.9829562 119.172414,50.0641264 119.172414,38.5 C119.172414,26.9358736 113.399768,16.0170438 103.168434,7.83169454 C101.26729,6.31072673 100.962966,3.54137927 102.488708,1.64618386 C104.01445,-0.24901155 106.79249,-0.552382963 108.693635,0.968584844 C120.925222,10.754192 128,24.1359758 128,38.5 C128,52.8640242 120.925222,66.245808 108.693635,76.0314152 Z" id="Shape"></path>
                        <path d="M37.9204398,14.9544374 C39.8190658,13.4502831 42.5877339,13.757335 44.1044331,15.6402571 C45.6211323,17.5231792 45.3115195,20.2689472 43.4128935,21.7731015 C37.8823568,26.1545756 34.8,31.9279822 34.8,38 C34.8,44.0720178 37.8823568,49.8454244 43.4128935,54.2268985 C45.3115195,55.7310528 45.6211323,58.4768208 44.1044331,60.3597429 C42.5877339,62.242665 39.8190658,62.5497169 37.9204398,61.0455626 C30.3885537,55.0785532 26,46.8585754 26,38 C26,29.1414246 30.3885537,20.9214468 37.9204398,14.9544374 Z M91.0795602,61.0455626 C89.1809342,62.5497169 86.4122661,62.242665 84.8955669,60.3597429 C83.3788677,58.4768208 83.6884805,55.7310528 85.5871065,54.2268985 C91.1176432,49.8454244 94.2,44.0720178 94.2,38 C94.2,31.9279822 91.1176432,26.1545756 85.5871065,21.7731015 C83.6884805,20.2689472 83.3788677,17.5231792 84.8955669,15.6402571 C86.4122661,13.757335 89.1809342,13.4502831 91.0795602,14.9544374 C98.6114463,20.9214468 103,29.1414246 103,38 C103,46.8585754 98.6114463,55.0785532 91.0795602,61.0455626 Z" id="Shape-Copy"></path>
                    </g>
                    <g id="Group-4" transform="translate(9.000000, 31.000000)" fill="#444444">
                        <path d="M35.5,70 L167.5,70 C187.106109,70 203,85.8938914 203,105.5 C203,125.106109 187.106109,141 167.5,141 L35.5,141 C15.8938914,141 2.40105582e-15,125.106109 0,105.5 C-2.40105582e-15,85.8938914 15.8938914,70 35.5,70 Z M116.5,113 C120.642136,113 124,109.642136 124,105.5 C124,101.357864 120.642136,98 116.5,98 C112.357864,98 109,101.357864 109,105.5 C109,109.642136 112.357864,113 116.5,113 Z M142.5,113 C146.642136,113 150,109.642136 150,105.5 C150,101.357864 146.642136,98 142.5,98 C138.357864,98 135,101.357864 135,105.5 C135,109.642136 138.357864,113 142.5,113 Z M168.5,113 C172.642136,113 176,109.642136 176,105.5 C176,101.357864 172.642136,98 168.5,98 C164.357864,98 161,101.357864 161,105.5 C161,109.642136 164.357864,113 168.5,113 Z" id="Combined-Shape"></path>
                        <path d="M56.5,6 C54.0147186,6 52,8.01471863 52,10.5 L52,80.5 C52,82.9852814 54.0147186,85 56.5,85 C58.9852814,85 61,82.9852814 61,80.5 L61,10.5 C61,8.01471863 58.9852814,6 56.5,6 Z M56.5,0 C62.2989899,-1.06525716e-15 67,4.70101013 67,10.5 L67,80.5 C67,86.2989899 62.2989899,91 56.5,91 C50.7010101,91 46,86.2989899 46,80.5 L46,10.5 C46,4.70101013 50.7010101,1.06525716e-15 56.5,0 Z" id="Rectangle" fill-rule="nonzero"></path>
                    </g>
                </g>
                <g id="Group-8" transform="translate(303.000000, 0.000000)" fill-rule="nonzero">
                    <path d="M138.116079,6 L138.116079,120.671204 L7.34058783,207.50073 C6.50328658,208.056663 6,208.994945 6,210 C6,211.656854 7.34314575,213 9,213 L344.232158,213 C345.237212,213 346.175494,212.496713 346.731428,211.659412 C347.647896,210.279103 347.271879,208.417198 345.89157,207.50073 L216.116079,121.335163 L216.116079,6 L138.116079,6 Z M222.116079,118.116812 L349.210394,202.50219 C353.35132,205.251594 354.479372,210.83731 351.729968,214.978237 C350.062168,217.49014 347.247322,219 344.232158,219 L9,219 C4.02943725,219 5.68434189e-14,214.970563 5.68434189e-14,210 C5.68434189e-14,206.984835 1.50985973,204.16999 4.02176349,202.50219 L132.116079,117.452854 L132.116079,-5.68434189e-14 L222.116079,-5.68434189e-14 L222.116079,118.116812 Z" id="Combined-Shape" fill="#444444"></path>
                    <path d="M132.222053,312.838156 C142.839498,308.031856 148.148221,298.761116 148.148221,285.025936 C148.148221,274.724551 141.484775,269.389196 141.484775,258.803496 C141.484775,251.746362 143.705923,243.811864 148.148221,235 C136.049407,239.354247 130,248.390858 130,262.109832 C130,273.41919 138.111627,277.621658 138.111627,289.062931 C138.111627,298.515023 136.148436,306.440098 132.222053,312.838156 Z" id="Oval" fill="#000000" opacity="0.100000001"></path>
                    <path d="M169.222053,312.838156 C179.839498,308.031856 185.148221,298.761116 185.148221,285.025936 C185.148221,274.724551 178.484775,269.389196 178.484775,258.803496 C178.484775,251.746362 180.705923,243.811864 185.148221,235 C173.049407,239.354247 167,248.390858 167,262.109832 C167,273.41919 175.111627,277.621658 175.111627,289.062931 C175.111627,298.515023 173.148436,306.440098 169.222053,312.838156 Z" id="Oval-Copy-2" fill="#000000" opacity="0.100000001"></path>
                    <path d="M206.222053,312.838156 C216.839498,308.031856 222.148221,298.761116 222.148221,285.025936 C222.148221,274.724551 215.484775,269.389196 215.484775,258.803496 C215.484775,251.746362 217.705923,243.811864 222.148221,235 C210.049407,239.354247 204,248.390858 204,262.109832 C204,273.41919 212.111627,277.621658 212.111627,289.062931 C212.111627,298.515023 210.148436,306.440098 206.222053,312.838156 Z" id="Oval-Copy-3" fill="#000000" opacity="0.100000001"></path>
                </g>
                <path d="M264.123518,128.521053 C266.056515,128.521053 267.623518,130.088056 267.623518,132.021053 C267.623518,133.954049 266.056515,135.521053 264.123518,135.521053 L174,135.521053 C170.636345,135.521053 169.209125,131.238943 171.900177,129.22092 L194.597901,112.199867 C196.144371,111.040167 198.338156,111.353706 199.497857,112.900177 C200.657557,114.446647 200.344018,116.640432 198.797547,117.800133 L184.501106,128.521053 L264.123518,128.521053 Z" id="Path-9" fill="#FDCC0D" fill-rule="nonzero"></path>
                <path d="M794.123518,128.521053 C796.056515,128.521053 797.623518,130.088056 797.623518,132.021053 C797.623518,133.954049 796.056515,135.521053 794.123518,135.521053 L704,135.521053 C700.636345,135.521053 699.209125,131.238943 701.900177,129.22092 L724.597901,112.199867 C726.144371,111.040167 728.338156,111.353706 729.497857,112.900177 C730.657557,114.446647 730.344018,116.640432 728.797547,117.800133 L714.501106,128.521053 L794.123518,128.521053 Z" id="Path-9-Copy-2" fill="#FDCC0D" fill-rule="nonzero"></path>
                <circle id="Oval" fill="#FFFFFF" cx="224" cy="58" r="32"></circle>
                <circle id="Oval-Copy-5" fill="#FFFFFF" cx="749" cy="58" r="32"></circle>
                <path d="M746.565843,66.7033398 L756.529127,66.7033398 C757.521644,66.7033398 758.278744,66.9074021 758.800451,67.3155326 C759.322158,67.7236632 759.583008,68.2784574 759.583008,68.9799318 C759.583008,69.6048817 759.376237,70.1341681 758.962688,70.5678069 C758.54914,71.0014456 757.922465,71.2182617 757.082643,71.2182617 L743.034794,71.2182617 C742.080451,71.2182617 741.336075,70.9536185 740.801644,70.4243242 C740.267212,69.8950299 740,69.2732778 740,68.5590493 C740,68.0999024 740.171779,67.4909042 740.515342,66.7320364 C740.858906,65.9731686 741.234275,65.3769243 741.641461,64.9432856 C743.333828,63.1832225 744.860753,61.6750751 746.222281,60.4187982 C747.58381,59.1625212 748.557224,58.3367069 749.142554,57.9413304 C750.185969,57.2015938 751.054407,56.4586797 751.747896,55.712566 C752.441385,54.9664523 752.969446,54.201219 753.332096,53.4168431 C753.694747,52.6324671 753.876069,51.8640453 753.876069,51.1115546 C753.876069,50.2952934 753.682022,49.5651333 753.293923,48.9210522 C752.905824,48.2769711 752.377762,47.776381 751.709723,47.4192668 C751.041683,47.0621525 750.313212,46.8835981 749.524289,46.8835981 C747.857371,46.8835981 746.546761,47.6169467 745.592418,49.0836659 C745.465173,49.2749771 745.252039,49.7978866 744.953012,50.65241 C744.653985,51.5069333 744.316789,52.1637586 743.941414,52.6229055 C743.56604,53.0820524 743.01571,53.3116224 742.29041,53.3116224 C741.654182,53.3116224 741.12612,53.1011832 740.70621,52.6802986 C740.286299,52.2594139 740.076347,51.6854889 740.076347,50.9585064 C740.076347,50.0784748 740.273575,49.1601948 740.668036,48.2036388 C741.062498,47.2470827 741.651,46.3798183 742.433561,45.6018194 C743.216122,44.8238205 744.208623,44.1956914 745.411094,43.7174134 C746.613566,43.2391354 748.02279,43 749.63881,43 C751.585668,43 753.246199,43.3060933 754.620452,43.9182892 C755.511172,44.3264198 756.293721,44.8875909 756.968123,45.6018194 C757.642525,46.3160479 758.167405,47.1418622 758.54278,48.0792871 C758.918154,49.016712 759.105839,49.9891961 759.105839,50.9967684 C759.105839,52.5782744 758.714564,54.0162754 757.932004,55.3108145 C757.149443,56.6053537 756.350989,57.6192879 755.536616,58.3526475 C754.722244,59.0860071 753.357555,60.2370456 751.442508,61.8057975 C749.527461,63.3745494 748.213669,64.5925458 747.501094,65.4598232 C747.195704,65.8041834 746.883957,66.2186848 746.565843,66.7033398 Z" id="2" fill="#4C4C4C"></path>
                <path d="M223.294061,70.8802266 L223.294061,51.9183385 C219.788934,54.6271932 217.429218,55.9816003 216.214843,55.9816003 C215.635255,55.9816003 215.121223,55.7489201 214.672733,55.2835527 C214.224242,54.8181854 214,54.2798954 214,53.6686667 C214,52.960197 214.220792,52.4392712 214.662383,52.1058737 C215.103974,51.7724762 215.883646,51.3418442 217.001423,50.8139648 C218.671188,50.0221458 220.006291,49.1886645 221.00677,48.3134961 C222.007249,47.4383277 222.893868,46.4589872 223.666652,45.3754453 C224.439436,44.2919034 224.943118,43.6251184 225.177713,43.3750703 C225.412308,43.1250222 225.853892,43 226.502479,43 C227.233864,43 227.820343,43.2847728 228.261933,43.8543268 C228.703524,44.4238809 228.924316,45.2087424 228.924316,46.2089349 L228.924316,70.0675742 C228.924316,72.8597783 227.97905,74.2558594 226.088489,74.2558594 C225.246707,74.2558594 224.570531,73.9710866 224.059941,73.4015326 C223.549352,72.8319785 223.294061,71.9915516 223.294061,70.8802266 Z" id="1" fill="#4C4C4C"></path>
                <path d="M264.123518,166.521053 C266.056515,166.521053 267.623518,168.088056 267.623518,170.021053 C267.623518,171.954049 266.056515,173.521053 264.123518,173.521053 L174,173.521053 C170.636345,173.521053 169.209125,169.238943 171.900177,167.22092 L194.597901,150.199867 C196.144371,149.040167 198.338156,149.353706 199.497857,150.900177 C200.657557,152.446647 200.344018,154.640432 198.797547,155.800133 L184.501106,166.521053 L264.123518,166.521053 Z" id="Path-9-Copy" fill="#FDCC0D" fill-rule="nonzero" transform="translate(219.058365, 161.510423) rotate(-180.000000) translate(-219.058365, -161.510423) "></path>
                <path d="M794.123518,166.521053 C796.056515,166.521053 797.623518,168.088056 797.623518,170.021053 C797.623518,171.954049 796.056515,173.521053 794.123518,173.521053 L704,173.521053 C700.636345,173.521053 699.209125,169.238943 701.900177,167.22092 L724.597901,150.199867 C726.144371,149.040167 728.338156,149.353706 729.497857,150.900177 C730.657557,152.446647 730.344018,154.640432 728.797547,155.800133 L714.501106,166.521053 L794.123518,166.521053 Z" id="Path-9-Copy-3" fill="#FDCC0D" fill-rule="nonzero" transform="translate(749.058365, 161.510423) rotate(-180.000000) translate(-749.058365, -161.510423) "></path>
            </g>
        </g>
    </g>
</svg>