<?xml version="1.0" encoding="UTF-8"?>
<svg width="1361px" height="5634px" viewBox="0 0 1361 5634" version="1.1" xmlns="http://www.w3.org/2000/svg" xmlns:xlink="http://www.w3.org/1999/xlink">
    <!-- Generator: Sketch 52.3 (67297) - http://www.bohemiancoding.com/sketch -->
    <title>light_path_mobile</title>
    <desc>Created with Sketch.</desc>
    <defs>
        <path d="M343.50698,5634 C343.50698,4991.39474 803.429068,5028.75817 1036.04982,4802.15276 C1268.67057,4575.54735 1441.66027,3953.57526 1190.59051,3609.62907 C939.520753,3265.68289 623.617252,3388.84311 420.38424,3091.76674 C217.151228,2794.69038 231.275397,2230.66493 495.031005,1961.8853 C758.786614,1693.10567 922.752747,1767.1481 1118.22112,1460.5239 C1313.6895,1153.8997 1284.78166,760.575285 1118.22112,482.42027 C951.660585,204.265254 563.070537,183.605974 337.056381,175.046266 C265.01574,172.317911 152.663613,172.317911 0,175.046266" id="path-1"></path>
        <linearGradient x1="50%" y1="96.3112309%" x2="50%" y2="41.6246448%" id="linearGradient-2">
            <stop stop-color="#FFFFFF" stop-opacity="0.158004982" offset="0%"></stop>
            <stop stop-color="#FFFFFF" stop-opacity="0" offset="100%"></stop>
        </linearGradient>
        <path d="M918.8,394.909488 C918.002995,395.187429 917.178082,395.333333 916.333333,395.333333 C909.521821,395.333333 904,385.846961 904,374.144928 C904,366.166423 906.566863,359.217886 910.359247,355.603714 C910.232705,354.744497 910.166667,353.859861 910.166667,352.956522 C910.166667,344.696263 915.688488,338 922.5,338 C929.311512,338 934.833333,344.696263 934.833333,352.956522 C934.833333,355.364111 934.364239,357.638835 933.530843,359.653613 C937.923644,362.895824 941,370.395927 941,379.130435 C941,390.832468 935.478179,400.318841 928.666667,400.318841 C927.37758,400.318841 926.134684,399.979076 924.966667,399.348831 L924.966667,424 L918.8,424 L918.8,394.909488 Z" id="path-3"></path>
        <path d="M622.8,82.9094884 C622.002995,83.1874289 621.178082,83.3333333 620.333333,83.3333333 C613.521821,83.3333333 608,73.8469609 608,62.1449275 C608,54.1664228 610.566863,47.2178858 614.359247,43.6037145 C614.232705,42.7444965 614.166667,41.8598615 614.166667,40.9565217 C614.166667,32.6962629 619.688488,26 626.5,26 C633.311512,26 638.833333,32.6962629 638.833333,40.9565217 C638.833333,43.3641111 638.364239,45.6388348 637.530843,47.6536131 C641.923644,50.8958241 645,58.3959272 645,67.1304348 C645,78.8324682 639.478179,88.3188406 632.666667,88.3188406 C631.37758,88.3188406 630.134684,87.9790764 628.966667,87.3488305 L628.966667,112 L622.8,112 L622.8,82.9094884 Z" id="path-4"></path>
        <path d="M1270.8,669.909488 C1270.003,670.187429 1269.17808,670.333333 1268.33333,670.333333 C1261.52182,670.333333 1256,660.846961 1256,649.144928 C1256,641.166423 1258.56686,634.217886 1262.35925,630.603714 C1262.23271,629.744497 1262.16667,628.859861 1262.16667,627.956522 C1262.16667,619.696263 1267.68849,613 1274.5,613 C1281.31151,613 1286.83333,619.696263 1286.83333,627.956522 C1286.83333,630.364111 1286.36424,632.638835 1285.53084,634.653613 C1289.92364,637.895824 1293,645.395927 1293,654.130435 C1293,665.832468 1287.47818,675.318841 1280.66667,675.318841 C1279.37758,675.318841 1278.13468,674.979076 1276.96667,674.348831 L1276.96667,699 L1270.8,699 L1270.8,669.909488 Z" id="path-5"></path>
        <path d="M257.8,265.909488 C257.002995,266.187429 256.178082,266.333333 255.333333,266.333333 C248.521821,266.333333 243,256.846961 243,245.144928 C243,237.166423 245.566863,230.217886 249.359247,226.603714 C249.232705,225.744497 249.166667,224.859861 249.166667,223.956522 C249.166667,215.696263 254.688488,209 261.5,209 C268.311512,209 273.833333,215.696263 273.833333,223.956522 C273.833333,226.364111 273.364239,228.638835 272.530843,230.653613 C276.923644,233.895824 280,241.395927 280,250.130435 C280,261.832468 274.478179,271.318841 267.666667,271.318841 C266.37758,271.318841 265.134684,270.979076 263.966667,270.348831 L263.966667,295 L257.8,295 L257.8,265.909488 Z" id="path-6"></path>
        <path d="M87.9915409,53 C87.9971652,52.8340257 88,52.6673439 88,52.5 C88,44.4918711 81.5081289,38 73.5,38 C65.4918711,38 59,44.4918711 59,52.5 C59,52.6673439 59.0028348,52.8340257 59.0084591,53 L35.9915409,53 C35.9971652,52.8340257 36,52.6673439 36,52.5 C36,44.4918711 29.5081289,38 21.5,38 C13.4918711,38 7,44.4918711 7,52.5 C7,52.6673439 7.00283483,52.8340257 7.0084591,53 C3.13400675,53 4.73447626e-16,49.8659932 0,46 L0,39.5 C-9.13077564e-16,32.0441559 6.04415588,26 13.5,26 L20.3932978,26 L30.027548,9.93347074 C33.7119718,3.78915209 40.4014954,0.0849234788 47.5645022,0.222631574 L69.8034255,0.650172663 C80.1186353,0.848481547 88.5902809,8.86068925 89.3628466,19.1488389 L89.8825705,26.0699301 C96.6889366,26.7623142 102,32.5109244 102,39.5 L102,46 C102,49.8659932 98.8659932,53 95,53 L87.9915409,53 Z" id="path-7"></path>
    </defs>
    <g id="portfolio" stroke="none" stroke-width="1" fill="none" fill-rule="evenodd">
        <g id="light_path_mobile" transform="translate(1.000000, 0.000000)">
            <g id="light_path">
                <use stroke="#F2F4F8" stroke-width="91" xlink:href="#path-1"></use>
                <use stroke="#FFFFFF" stroke-width="71" xlink:href="#path-1"></use>
            </g>
            <g id="Group-3" transform="translate(573.000000, 1749.000000)" fill-rule="nonzero">
                <g id="Group-11" fill="#395484">
                    <path d="M0.261708364,76.9971573 L0,76.9971573 L1.41929742e-17,76.8544675 C0.087215911,76.9026545 0.174471397,76.9502113 0.261708364,76.9971573 Z M42.5351656,0.99716196 L65.0035878,0.997185748 C71.0767405,0.997187634 76.000002,5.74306756 76,11.5974052 C75.9999997,12.5265051 75.8732839,13.4515728 75.6231099,14.3488288 C73.69953,21.2478029 68.1116694,24.9011684 60.037309,24.9011684 C49.8874248,24.9011684 43.8412315,19.3351923 42.5341962,9.50333975 L42.5351656,0.99716196 Z M60.037309,16.4209794 C64.3244581,16.4209794 66.2952526,15.1324662 67.1274733,12.147683 C67.1775077,11.9682332 67.2028507,11.7832211 67.2028507,11.5974025 C67.2028511,10.4265439 66.2182063,9.47737509 65.0035816,9.47737471 L51.3863174,9.47736029 C52.2682149,14.434287 54.9916325,16.4209794 60.037309,16.4209794 Z" id="Combined-Shape"></path>
                </g>
                <path d="M69.6666717,44.3864048 C69.6867384,46.7368421 67.7997399,48.6585336 65.4519427,48.6786228 C63.1041455,48.698712 61.1846125,46.8095916 61.1645459,44.4591543 C61.1246785,39.7894214 57.290108,35.950539 52.6256204,35.9106267 C50.2778231,35.8905375 48.3908247,33.9688461 48.4108913,31.6184088 C48.4309579,29.2679715 50.3504909,27.3788511 52.6982881,27.3989403 C62.0017145,27.4785461 69.5871553,35.0725168 69.6666717,44.3864048 Z" id="Oval-Copy-36" fill="#4F8CF8" transform="translate(59.038782, 38.038782) rotate(-225.000000) translate(-59.038782, -38.038782) "></path>
                <path d="M76.6418532,65.9476212 C76.6620884,68.2519718 74.7592326,70.1359833 72.3917057,70.1556786 C70.0241788,70.1753739 68.0885151,68.3232948 68.0682798,66.0189442 C67.9578515,53.4436044 57.3734027,43.1415964 44.4532961,43.0341149 C42.0857692,43.0144196 40.1829133,41.1304081 40.2031486,38.8260575 C40.2233839,36.5217069 42.1590476,34.6696279 44.5265745,34.6893232 C62.1246031,34.83572 76.4914427,48.8191874 76.6418532,65.9476212 Z" id="Oval-Copy-37" fill="#4F8CF8" transform="translate(58.422501, 52.422501) rotate(-225.000000) translate(-58.422501, -52.422501) "></path>
                <path d="M65.2947369,9.49863169 C65.1994739,9.4864857 65.1022871,9.48021748 65.0035816,9.48021745 L51.3863174,9.48020303 C51.3874111,9.48635049 51.3885076,9.49249338 51.389607,9.4986317 L42.5331925,9.49863169 C42.5323783,9.49248735 42.531565,9.48634133 42.5307536,9.48019366 L38.0962252,9.48018896 C21.9147924,9.48018896 8.79714926,22.1252049 8.79714926,37.7236225 L8.79714926,77 L-4.68958206e-13,77 L-4.65051487e-13,37.7236225 C-4.67493186e-13,17.4417258 17.056261,1 38.0962301,1 L65.0035878,1.00002849 C65.3118039,1.00002858 65.6170584,1.01225227 65.9188579,1.03622408 L65.9188579,9.49863169 L65.2947369,9.49863169 Z" id="Combined-Shape" fill="#395484"></path>
            </g>
            <g id="Combined-Shape-Copy-6">
                <use fill="#F2F4F8" xlink:href="#path-3"></use>
                <path stroke="#FFFFFF" stroke-width="4" d="M916.8,397.32165 C916.644804,397.32943 916.489231,397.333333 916.333333,397.333333 C908.127814,397.333333 902,386.805879 902,374.144928 C902,366.320683 904.357971,359.143085 908.258724,354.891164 C908.197524,354.252082 908.166667,353.606473 908.166667,352.956522 C908.166667,343.667687 914.489537,336 922.5,336 C930.510463,336 936.833333,343.667687 936.833333,352.956522 C936.833333,355.055735 936.51117,357.103682 935.892414,359.020447 C940.279933,363.099349 943,370.726048 943,379.130435 C943,391.791386 936.872186,402.318841 928.666667,402.318841 C928.093975,402.318841 927.52648,402.266215 926.966667,402.162624 L926.966667,426 L916.8,426 L916.8,397.32165 Z" fill="url(#linearGradient-2)"></path>
            </g>
            <g id="Combined-Shape-Copy-7">
                <use fill="#F2F4F8" xlink:href="#path-4"></use>
                <path stroke="#FFFFFF" stroke-width="4" d="M620.8,85.3216498 C620.644804,85.3294299 620.489231,85.3333333 620.333333,85.3333333 C612.127814,85.3333333 606,74.805879 606,62.1449275 C606,54.3206829 608.357971,47.1430847 612.258724,42.8911641 C612.197524,42.2520823 612.166667,41.6064726 612.166667,40.9565217 C612.166667,31.6676874 618.489537,24 626.5,24 C634.510463,24 640.833333,31.6676874 640.833333,40.9565217 C640.833333,43.055735 640.51117,45.1036816 639.892414,47.0204469 C644.279933,51.0993494 647,58.7260481 647,67.1304348 C647,79.7913863 640.872186,90.3188406 632.666667,90.3188406 C632.093975,90.3188406 631.52648,90.2662153 630.966667,90.1626239 L630.966667,114 L620.8,114 L620.8,85.3216498 Z" fill="url(#linearGradient-2)"></path>
            </g>
            <g id="Combined-Shape-Copy-5">
                <use fill="#F2F4F8" xlink:href="#path-5"></use>
                <use fill="url(#linearGradient-2)" xlink:href="#path-5"></use>
            </g>
            <g id="Combined-Shape-Copy-2">
                <use fill="#F2F4F8" xlink:href="#path-6"></use>
                <path stroke="#FFFFFF" stroke-width="4" d="M255.8,268.32165 C255.644804,268.32943 255.489231,268.333333 255.333333,268.333333 C247.127814,268.333333 241,257.805879 241,245.144928 C241,237.320683 243.357971,230.143085 247.258724,225.891164 C247.197524,225.252082 247.166667,224.606473 247.166667,223.956522 C247.166667,214.667687 253.489537,207 261.5,207 C269.510463,207 275.833333,214.667687 275.833333,223.956522 C275.833333,226.055735 275.51117,228.103682 274.892414,230.020447 C279.279933,234.099349 282,241.726048 282,250.130435 C282,262.791386 275.872186,273.318841 267.666667,273.318841 C267.093975,273.318841 266.52648,273.266215 265.966667,273.162624 L265.966667,297 L255.8,297 L255.8,268.32165 Z" fill="url(#linearGradient-2)"></path>
            </g>
            <g id="Group-8-Copy" transform="translate(1066.000000, 164.000000)" fill-rule="nonzero">
                <g id="Group-15-Copy-4">
                    <path d="M57.6674153,14.8149871 C61.7853348,14.8149871 63.6783347,13.5773362 64.4777046,10.7103734 C64.525764,10.5380072 64.5501066,10.3602981 64.5501066,10.1818145 C64.550107,9.05717397 63.6043298,8.14547239 62.4376507,8.14547202 L49.3579101,8.14545818 C50.2049959,12.9067167 52.8209101,14.8149871 57.6674153,14.8149871 Z M40.8519081,8.14544917 L36.5924269,8.14544466 C21.0497348,8.14544466 8.44989337,20.2913152 8.44989337,35.2740059 L8.44989337,73 L0,73 L3.75250647e-15,35.2740059 C1.40718993e-15,15.7927104 16.3829876,-2.45253217e-12 36.5924315,0 L62.4376567,2.73631738e-05 C68.2710797,2.91752755e-05 73.0000019,4.55857173 73,10.1818171 C72.9999997,11.074242 72.8782858,11.9627939 72.6379872,12.8246318 C70.790338,19.4512781 65.4230508,22.9604317 57.6674153,22.9604317 C47.9095975,22.9604317 42.1004294,17.6047434 40.8519081,8.14544917 Z" id="Path-7" fill="#395484"></path>
                    <path d="M66.9998433,41.7641019 C67.0196682,44.0836124 65.1554047,45.9800185 62.8358942,45.9998433 C60.5163836,46.0196682 58.6199776,44.1554047 58.6001527,41.8358942 C58.5607657,37.2276052 54.7723948,33.4392343 50.1641058,33.3998473 C47.8445953,33.3800224 45.9803318,31.4836164 46.0001567,29.1641058 C46.0199815,26.8445953 47.9163876,24.9803318 50.2358981,25.0001567 C59.4272349,25.0787151 66.9212849,32.5727651 66.9998433,41.7641019 Z" id="Oval-Copy-36" fill="#4F8CF8" transform="translate(56.500000, 35.500000) rotate(-225.000000) translate(-56.500000, -35.500000) "></path>
                    <path d="M73.999842,62.8471582 C74.0198335,65.1211884 72.1399036,66.9804103 69.8009011,66.9998464 C67.4618986,67.0192826 65.5495562,65.191573 65.5295647,62.9175428 C65.4204669,50.5076679 54.9635416,40.3412127 42.1990989,40.2351454 C39.8600964,40.2157093 37.9801665,38.3564874 38.000158,36.0824572 C38.0201495,33.808427 39.9324919,31.9807174 42.2714944,32.0001536 C59.6574986,32.1446242 73.8512437,45.9440986 73.999842,62.8471582 Z" id="Oval-Copy-37" fill="#4F8CF8" transform="translate(56.000000, 49.500000) rotate(-225.000000) translate(-56.000000, -49.500000) "></path>
                </g>
            </g>
            <g id="Group-8" transform="translate(221.000000, 0.000000)" fill-rule="nonzero">
                <g id="Group-15-Copy-4">
                    <path d="M57.6674153,14.8149871 C61.7853348,14.8149871 63.6783347,13.5773362 64.4777046,10.7103734 C64.525764,10.5380072 64.5501066,10.3602981 64.5501066,10.1818145 C64.550107,9.05717397 63.6043298,8.14547239 62.4376507,8.14547202 L49.3579101,8.14545818 C50.2049959,12.9067167 52.8209101,14.8149871 57.6674153,14.8149871 Z M40.8519081,8.14544917 L36.5924269,8.14544466 C21.0497348,8.14544466 8.44989337,20.2913152 8.44989337,35.2740059 L8.44989337,73 L0,73 L3.75250647e-15,35.2740059 C1.40718993e-15,15.7927104 16.3829876,-2.45253217e-12 36.5924315,0 L62.4376567,2.73631738e-05 C68.2710797,2.91752755e-05 73.0000019,4.55857173 73,10.1818171 C72.9999997,11.074242 72.8782858,11.9627939 72.6379872,12.8246318 C70.790338,19.4512781 65.4230508,22.9604317 57.6674153,22.9604317 C47.9095975,22.9604317 42.1004294,17.6047434 40.8519081,8.14544917 Z" id="Path-7" fill="#395484"></path>
                    <path d="M66.9998433,41.7641019 C67.0196682,44.0836124 65.1554047,45.9800185 62.8358942,45.9998433 C60.5163836,46.0196682 58.6199776,44.1554047 58.6001527,41.8358942 C58.5607657,37.2276052 54.7723948,33.4392343 50.1641058,33.3998473 C47.8445953,33.3800224 45.9803318,31.4836164 46.0001567,29.1641058 C46.0199815,26.8445953 47.9163876,24.9803318 50.2358981,25.0001567 C59.4272349,25.0787151 66.9212849,32.5727651 66.9998433,41.7641019 Z" id="Oval-Copy-36" fill="#4F8CF8" transform="translate(56.500000, 35.500000) rotate(-225.000000) translate(-56.500000, -35.500000) "></path>
                    <path d="M73.999842,62.8471582 C74.0198335,65.1211884 72.1399036,66.9804103 69.8009011,66.9998464 C67.4618986,67.0192826 65.5495562,65.191573 65.5295647,62.9175428 C65.4204669,50.5076679 54.9635416,40.3412127 42.1990989,40.2351454 C39.8600964,40.2157093 37.9801665,38.3564874 38.000158,36.0824572 C38.0201495,33.808427 39.9324919,31.9807174 42.2714944,32.0001536 C59.6574986,32.1446242 73.8512437,45.9440986 73.999842,62.8471582 Z" id="Oval-Copy-37" fill="#4F8CF8" transform="translate(56.000000, 49.500000) rotate(-225.000000) translate(-56.000000, -49.500000) "></path>
                </g>
            </g>
            <g id="Group-8-Copy-2" transform="translate(608.000000, 293.000000)" fill-rule="nonzero">
                <g id="Group-15-Copy-4">
                    <path d="M57.6674153,14.8149871 C61.7853348,14.8149871 63.6783347,13.5773362 64.4777046,10.7103734 C64.525764,10.5380072 64.5501066,10.3602981 64.5501066,10.1818145 C64.550107,9.05717397 63.6043298,8.14547239 62.4376507,8.14547202 L49.3579101,8.14545818 C50.2049959,12.9067167 52.8209101,14.8149871 57.6674153,14.8149871 Z M40.8519081,8.14544917 L36.5924269,8.14544466 C21.0497348,8.14544466 8.44989337,20.2913152 8.44989337,35.2740059 L8.44989337,73 L0,73 L3.75250647e-15,35.2740059 C1.40718993e-15,15.7927104 16.3829876,-2.45253217e-12 36.5924315,0 L62.4376567,2.73631738e-05 C68.2710797,2.91752755e-05 73.0000019,4.55857173 73,10.1818171 C72.9999997,11.074242 72.8782858,11.9627939 72.6379872,12.8246318 C70.790338,19.4512781 65.4230508,22.9604317 57.6674153,22.9604317 C47.9095975,22.9604317 42.1004294,17.6047434 40.8519081,8.14544917 Z" id="Path-7" fill="#395484"></path>
                    <path d="M66.9998433,41.7641019 C67.0196682,44.0836124 65.1554047,45.9800185 62.8358942,45.9998433 C60.5163836,46.0196682 58.6199776,44.1554047 58.6001527,41.8358942 C58.5607657,37.2276052 54.7723948,33.4392343 50.1641058,33.3998473 C47.8445953,33.3800224 45.9803318,31.4836164 46.0001567,29.1641058 C46.0199815,26.8445953 47.9163876,24.9803318 50.2358981,25.0001567 C59.4272349,25.0787151 66.9212849,32.5727651 66.9998433,41.7641019 Z" id="Oval-Copy-36" fill="#4F8CF8" transform="translate(56.500000, 35.500000) rotate(-225.000000) translate(-56.500000, -35.500000) "></path>
                    <path d="M73.999842,62.8471582 C74.0198335,65.1211884 72.1399036,66.9804103 69.8009011,66.9998464 C67.4618986,67.0192826 65.5495562,65.191573 65.5295647,62.9175428 C65.4204669,50.5076679 54.9635416,40.3412127 42.1990989,40.2351454 C39.8600964,40.2157093 37.9801665,38.3564874 38.000158,36.0824572 C38.0201495,33.808427 39.9324919,31.9807174 42.2714944,32.0001536 C59.6574986,32.1446242 73.8512437,45.9440986 73.999842,62.8471582 Z" id="Oval-Copy-37" fill="#4F8CF8" transform="translate(56.000000, 49.500000) rotate(-225.000000) translate(-56.000000, -49.500000) "></path>
                </g>
            </g>
            <g id="Group-9-Copy" transform="translate(411.000000, 120.000000) scale(-1, 1) translate(-411.000000, -120.000000) translate(360.000000, 88.000000)">
                <g id="Combined-Shape">
                    <use fill="#F2F4F8" xlink:href="#path-7"></use>
                    <path stroke="#FFFFFF" stroke-width="4" d="M19.2605745,24 L28.3122953,8.90492415 C32.3651615,2.14617363 39.7236374,-1.92847784 47.6029449,-1.77699893 L69.8418682,-1.34945784 C81.188599,-1.13131807 90.5074092,7.6821104 91.3572314,18.999075 L91.7585293,24.3431031 C98.798012,25.8471939 104,32.1050096 104,39.5 L104,46 C104,50.9705627 99.9705627,55 95,55 L85.9226202,55 L85.9926882,52.9322662 C85.9975589,52.788531 86,52.6444303 86,52.5 C86,45.5964406 80.4035594,40 73.5,40 C66.5964406,40 61,45.5964406 61,52.5 C61,52.6444303 61.0024411,52.788531 61.0073118,52.9322662 L61.0773798,55 L33.9226202,55 L33.9926882,52.9322662 C33.9975589,52.788531 34,52.6444303 34,52.5 C34,45.5964406 28.4035594,40 21.5,40 C14.5964406,40 9,45.5964406 9,52.5 C9,52.6444303 9.00244114,52.788531 9.0073118,52.9322662 L9.07737978,55 L7.0084591,55 C2.03111866,55 -2,50.9722434 -2,46 L-2,39.5 C-2,30.9395864 4.93958638,24 13.5,24 L19.2605745,24 Z" fill="url(#linearGradient-2)"></path>
                </g>
                <path d="M42.8328426,9 L51,9 C53.209139,9 55,10.790861 55,13 L55,26 L29,26 L34.7217266,14.1000261 C36.2206753,10.9825317 39.3737071,9 42.8328426,9 Z" id="Rectangle" fill="#FFFFFF"></path>
                <path d="M70,9 L78,9 C80.209139,9 82,10.790861 82,13 L82,26 L58,26 L58,21 C58,14.372583 63.372583,9 70,9 Z" id="Rectangle-Copy-5" fill="#FFFFFF" transform="translate(70.000000, 17.500000) scale(-1, 1) translate(-70.000000, -17.500000) "></path>
                <circle id="Oval" fill="#F2F4F8" cx="21.5" cy="52.5" r="11.5"></circle>
                <circle id="Oval-Copy-4" fill="#F2F4F8" cx="73.5" cy="52.5" r="11.5"></circle>
            </g>
        </g>
    </g>
</svg>