<?xml version="1.0" encoding="UTF-8"?>
<svg width="1187px" height="2691px" viewBox="0 0 1187 2691" version="1.1" xmlns="http://www.w3.org/2000/svg" xmlns:xlink="http://www.w3.org/1999/xlink">
    <!-- Generator: Sketch 52.3 (67297) - http://www.bohemiancoding.com/sketch -->
    <title>light_path</title>
    <desc>Created with Sketch.</desc>
    <defs>
        <path d="M343.485465,2691 C343.485465,2390.70692 813.29153,2478.93638 1045.89771,2373.04239 C1278.50389,2267.14841 1441.56998,1905.728 1190.51594,1745 C939.461908,1584.272 513.82202,1674 420.35791,1503 C326.8938,1332 296.980025,1045.98083 495,975 C693.019975,904.019168 962.909475,993.502059 1088,827 C1213.09053,660.497941 1284.70119,413.621027 1118.15109,283.637613 C951.60098,153.654199 563.03527,144 337.03527,140 C264.999141,138.725024 152.654051,138.725024 3.41060513e-13,140" id="path-1"></path>
        <linearGradient x1="50%" y1="96.3112309%" x2="50%" y2="41.6246448%" id="linearGradient-2">
            <stop stop-color="#FFFFFF" stop-opacity="0.158004982" offset="0%"></stop>
            <stop stop-color="#FFFFFF" stop-opacity="0" offset="100%"></stop>
        </linearGradient>
        <path d="M918.964706,260.940629 C918.158832,261.218722 917.324738,261.364706 916.470588,261.364706 C909.583273,261.364706 904,251.873143 904,240.164706 C904,232.181835 906.595429,225.229496 910.430018,221.613347 C910.302068,220.753659 910.235294,219.86854 910.235294,218.964706 C910.235294,210.699927 915.818567,204 922.705882,204 C929.593198,204 935.176471,210.699927 935.176471,218.964706 C935.176471,221.373613 934.702156,223.649581 933.859485,225.665462 C938.301173,228.909447 941.411765,236.413654 941.411765,245.152941 C941.411765,256.861378 935.828492,266.352941 928.941176,266.352941 C927.637743,266.352941 926.381016,266.012991 925.2,265.3824 L925.2,290.047059 L918.964706,290.047059 L918.964706,260.940629 Z" id="path-3"></path>
        <path d="M622.964706,70.9373384 C622.158832,71.215431 621.324738,71.3614153 620.470588,71.3614153 C613.583273,71.3614153 608,61.869852 608,50.1614153 C608,42.1785447 610.595429,35.2262055 614.430018,31.6100565 C614.302068,30.7503684 614.235294,29.8652493 614.235294,28.9614153 C614.235294,20.6966364 619.818567,13.9967094 626.705882,13.9967094 C633.593198,13.9967094 639.176471,20.6966364 639.176471,28.9614153 C639.176471,31.3703221 638.702156,33.6462904 637.859485,35.6621712 C642.301173,38.9061563 645.411765,46.4103635 645.411765,55.1496506 C645.411765,66.8580872 639.828492,76.3496506 632.941176,76.3496506 C631.637743,76.3496506 630.381016,76.0097004 629.2,75.3791097 L629.2,100.043768 L622.964706,100.043768 L622.964706,70.9373384 Z" id="path-4"></path>
        <path d="M1270.96471,378.89357 C1270.15883,379.171663 1269.32474,379.317647 1268.47059,379.317647 C1261.58327,379.317647 1256,369.826084 1256,358.117647 C1256,350.134776 1258.59543,343.182437 1262.43002,339.566288 C1262.30207,338.7066 1262.23529,337.821481 1262.23529,336.917647 C1262.23529,328.652868 1267.81857,321.952941 1274.70588,321.952941 C1281.5932,321.952941 1287.17647,328.652868 1287.17647,336.917647 C1287.17647,339.326554 1286.70216,341.602522 1285.85948,343.618403 C1290.30117,346.862388 1293.41176,354.366595 1293.41176,363.105882 C1293.41176,374.814319 1287.82849,384.305882 1280.94118,384.305882 C1279.63774,384.305882 1278.38102,383.965932 1277.2,383.335342 L1277.2,408 L1270.96471,408 L1270.96471,378.89357 Z" id="path-5"></path>
        <path d="M257.964706,209.89357 C257.158832,210.171663 256.324738,210.317647 255.470588,210.317647 C248.583273,210.317647 243,200.826084 243,189.117647 C243,181.134776 245.595429,174.182437 249.430018,170.566288 C249.302068,169.7066 249.235294,168.821481 249.235294,167.917647 C249.235294,159.652868 254.818567,152.952941 261.705882,152.952941 C268.593198,152.952941 274.176471,159.652868 274.176471,167.917647 C274.176471,170.326554 273.702156,172.602522 272.859485,174.618403 C277.301173,177.862388 280.411765,185.366595 280.411765,194.105882 C280.411765,205.814319 274.828492,215.305882 267.941176,215.305882 C266.637743,215.305882 265.381016,214.965932 264.2,214.335342 L264.2,239 L257.964706,239 L257.964706,209.89357 Z" id="path-6"></path>
        <path d="M87.9915409,53 C87.9971652,52.8340257 88,52.6673439 88,52.5 C88,44.4918711 81.5081289,38 73.5,38 C65.4918711,38 59,44.4918711 59,52.5 C59,52.6673439 59.0028348,52.8340257 59.0084591,53 L35.9915409,53 C35.9971652,52.8340257 36,52.6673439 36,52.5 C36,44.4918711 29.5081289,38 21.5,38 C13.4918711,38 7,44.4918711 7,52.5 C7,52.6673439 7.00283483,52.8340257 7.0084591,53 C3.13400675,53 4.73447626e-16,49.8659932 0,46 L0,39.5 C-9.13077564e-16,32.0441559 6.04415588,26 13.5,26 L20.3932978,26 L30.027548,9.93347074 C33.7119718,3.78915209 40.4014954,0.0849234788 47.5645022,0.222631574 L69.8034255,0.650172663 C80.1186353,0.848481547 88.5902809,8.86068925 89.3628466,19.1488389 L89.8825705,26.0699301 C96.6889366,26.7623142 102,32.5109244 102,39.5 L102,46 C102,49.8659932 98.8659932,53 95,53 L87.9915409,53 Z" id="path-7"></path>
    </defs>
    <g id="portfolio" stroke="none" stroke-width="1" fill="none" fill-rule="evenodd">
        <g id="light_behance" transform="translate(0.000000, -1049.000000)">
            <g id="light_path" transform="translate(-176.000000, 1049.000000)">
                <g>
                    <use stroke="#F2F4F8" stroke-width="91" xlink:href="#path-1"></use>
                    <use stroke="#FFFFFF" stroke-width="71" xlink:href="#path-1"></use>
                </g>
                <g id="Group-3" transform="translate(573.000000, 866.000000)" fill-rule="nonzero">
                    <g id="Group-11" fill="#395484">
                        <path d="M0.261708364,76.9971573 L0,76.9971573 L1.41929742e-17,76.8544675 C0.087215911,76.9026545 0.174471397,76.9502113 0.261708364,76.9971573 Z M42.5351656,0.99716196 L65.0035878,0.997185748 C71.0767405,0.997187634 76.000002,5.74306756 76,11.5974052 C75.9999997,12.5265051 75.8732839,13.4515728 75.6231099,14.3488288 C73.69953,21.2478029 68.1116694,24.9011684 60.037309,24.9011684 C49.8874248,24.9011684 43.8412315,19.3351923 42.5341962,9.50333975 L42.5351656,0.99716196 Z M60.037309,16.4209794 C64.3244581,16.4209794 66.2952526,15.1324662 67.1274733,12.147683 C67.1775077,11.9682332 67.2028507,11.7832211 67.2028507,11.5974025 C67.2028511,10.4265439 66.2182063,9.47737509 65.0035816,9.47737471 L51.3863174,9.47736029 C52.2682149,14.434287 54.9916325,16.4209794 60.037309,16.4209794 Z" id="Combined-Shape"></path>
                    </g>
                    <path d="M69.6666717,44.3864048 C69.6867384,46.7368421 67.7997399,48.6585336 65.4519427,48.6786228 C63.1041455,48.698712 61.1846125,46.8095916 61.1645459,44.4591543 C61.1246785,39.7894214 57.290108,35.950539 52.6256204,35.9106267 C50.2778231,35.8905375 48.3908247,33.9688461 48.4108913,31.6184088 C48.4309579,29.2679715 50.3504909,27.3788511 52.6982881,27.3989403 C62.0017145,27.4785461 69.5871553,35.0725168 69.6666717,44.3864048 Z" id="Oval-Copy-36" fill="#4F8CF8" transform="translate(59.038782, 38.038782) rotate(-225.000000) translate(-59.038782, -38.038782) "></path>
                    <path d="M76.6418532,65.9476212 C76.6620884,68.2519718 74.7592326,70.1359833 72.3917057,70.1556786 C70.0241788,70.1753739 68.0885151,68.3232948 68.0682798,66.0189442 C67.9578515,53.4436044 57.3734027,43.1415964 44.4532961,43.0341149 C42.0857692,43.0144196 40.1829133,41.1304081 40.2031486,38.8260575 C40.2233839,36.5217069 42.1590476,34.6696279 44.5265745,34.6893232 C62.1246031,34.83572 76.4914427,48.8191874 76.6418532,65.9476212 Z" id="Oval-Copy-37" fill="#4F8CF8" transform="translate(58.422501, 52.422501) rotate(-225.000000) translate(-58.422501, -52.422501) "></path>
                    <path d="M65.2947369,9.49863169 C65.1994739,9.4864857 65.1022871,9.48021748 65.0035816,9.48021745 L51.3863174,9.48020303 C51.3874111,9.48635049 51.3885076,9.49249338 51.389607,9.4986317 L42.5331925,9.49863169 C42.5323783,9.49248735 42.531565,9.48634133 42.5307536,9.48019366 L38.0962252,9.48018896 C21.9147924,9.48018896 8.79714926,22.1252049 8.79714926,37.7236225 L8.79714926,77 L-4.68958206e-13,77 L-4.65051487e-13,37.7236225 C-4.67493186e-13,17.4417258 17.056261,1 38.0962301,1 L65.0035878,1.00002849 C65.3118039,1.00002858 65.6170584,1.01225227 65.9188579,1.03622408 L65.9188579,9.49863169 L65.2947369,9.49863169 Z" id="Combined-Shape" fill="#395484"></path>
                </g>
                <g id="Combined-Shape-Copy-6">
                    <use fill="#F2F4F8" xlink:href="#path-3"></use>
                    <path stroke="#FFFFFF" stroke-width="4" d="M916.964706,263.351826 C916.800399,263.360402 916.635672,263.364706 916.470588,263.364706 C908.195338,263.364706 902,252.832631 902,240.164706 C902,232.33374 904.38471,225.149819 908.327801,220.895401 C908.266301,220.2576 908.235294,219.613311 908.235294,218.964706 C908.235294,209.667794 914.625122,202 922.705882,202 C930.786642,202 937.176471,209.667794 937.176471,218.964706 C937.176471,221.063701 936.851464,223.111452 936.227285,225.028177 C940.661046,229.108888 943.411765,236.741892 943.411765,245.152941 C943.411765,257.820867 937.216427,268.352941 928.941176,268.352941 C928.354567,268.352941 927.773304,268.298653 927.2,268.191791 L927.2,292.047059 L916.964706,292.047059 L916.964706,263.351826 Z" fill="url(#linearGradient-2)"></path>
                </g>
                <g id="Combined-Shape-Copy-7">
                    <use fill="#F2F4F8" xlink:href="#path-4"></use>
                    <path stroke="#FFFFFF" stroke-width="4" d="M620.964706,73.3485359 C620.800399,73.3571119 620.635672,73.3614153 620.470588,73.3614153 C612.195338,73.3614153 606,62.8293407 606,50.1614153 C606,42.330449 608.38471,35.1465287 612.327801,30.8921101 C612.266301,30.254309 612.235294,29.6100204 612.235294,28.9614153 C612.235294,19.6645033 618.625122,11.9967094 626.705882,11.9967094 C634.786642,11.9967094 641.176471,19.6645033 641.176471,28.9614153 C641.176471,31.0604102 640.851464,33.1081615 640.227285,35.0248868 C644.661046,39.1055978 647.411765,46.7386013 647.411765,55.1496506 C647.411765,67.817576 641.216427,78.3496506 632.941176,78.3496506 C632.354567,78.3496506 631.773304,78.2953624 631.2,78.1885005 L631.2,102.043768 L620.964706,102.043768 L620.964706,73.3485359 Z" fill="url(#linearGradient-2)"></path>
                </g>
                <g id="Combined-Shape-Copy-5">
                    <use fill="#F2F4F8" xlink:href="#path-5"></use>
                    <use fill="url(#linearGradient-2)" xlink:href="#path-5"></use>
                </g>
                <g id="Combined-Shape-Copy-2">
                    <use fill="#F2F4F8" xlink:href="#path-6"></use>
                    <path stroke="#FFFFFF" stroke-width="4" d="M255.964706,212.304768 C255.800399,212.313344 255.635672,212.317647 255.470588,212.317647 C247.195338,212.317647 241,201.785573 241,189.117647 C241,181.286681 243.38471,174.10276 247.327801,169.848342 C247.266301,169.210541 247.235294,168.566252 247.235294,167.917647 C247.235294,158.620735 253.625122,150.952941 261.705882,150.952941 C269.786642,150.952941 276.176471,158.620735 276.176471,167.917647 C276.176471,170.016642 275.851464,172.064393 275.227285,173.981119 C279.661046,178.06183 282.411765,185.694833 282.411765,194.105882 C282.411765,206.773808 276.216427,217.305882 267.941176,217.305882 C267.354567,217.305882 266.773304,217.251594 266.2,217.144732 L266.2,241 L255.964706,241 L255.964706,212.304768 Z" fill="url(#linearGradient-2)"></path>
                </g>
                <g id="Group-8-Copy" transform="translate(1067.000000, 101.000000)" fill-rule="nonzero">
                    <g id="Group-15-Copy-4">
                        <path d="M57.6674153,14.8149871 C61.7853348,14.8149871 63.6783347,13.5773362 64.4777046,10.7103734 C64.525764,10.5380072 64.5501066,10.3602981 64.5501066,10.1818145 C64.550107,9.05717397 63.6043298,8.14547239 62.4376507,8.14547202 L49.3579101,8.14545818 C50.2049959,12.9067167 52.8209101,14.8149871 57.6674153,14.8149871 Z M40.8519081,8.14544917 L36.5924269,8.14544466 C21.0497348,8.14544466 8.44989337,20.2913152 8.44989337,35.2740059 L8.44989337,73 L0,73 L3.75250647e-15,35.2740059 C1.40718993e-15,15.7927104 16.3829876,-2.45253217e-12 36.5924315,0 L62.4376567,2.73631738e-05 C68.2710797,2.91752755e-05 73.0000019,4.55857173 73,10.1818171 C72.9999997,11.074242 72.8782858,11.9627939 72.6379872,12.8246318 C70.790338,19.4512781 65.4230508,22.9604317 57.6674153,22.9604317 C47.9095975,22.9604317 42.1004294,17.6047434 40.8519081,8.14544917 Z" id="Path-7" fill="#395484"></path>
                        <path d="M66.9998433,41.7641019 C67.0196682,44.0836124 65.1554047,45.9800185 62.8358942,45.9998433 C60.5163836,46.0196682 58.6199776,44.1554047 58.6001527,41.8358942 C58.5607657,37.2276052 54.7723948,33.4392343 50.1641058,33.3998473 C47.8445953,33.3800224 45.9803318,31.4836164 46.0001567,29.1641058 C46.0199815,26.8445953 47.9163876,24.9803318 50.2358981,25.0001567 C59.4272349,25.0787151 66.9212849,32.5727651 66.9998433,41.7641019 Z" id="Oval-Copy-36" fill="#4F8CF8" transform="translate(56.500000, 35.500000) rotate(-225.000000) translate(-56.500000, -35.500000) "></path>
                        <path d="M73.999842,62.8471582 C74.0198335,65.1211884 72.1399036,66.9804103 69.8009011,66.9998464 C67.4618986,67.0192826 65.5495562,65.191573 65.5295647,62.9175428 C65.4204669,50.5076679 54.9635416,40.3412127 42.1990989,40.2351454 C39.8600964,40.2157093 37.9801665,38.3564874 38.000158,36.0824572 C38.0201495,33.808427 39.9324919,31.9807174 42.2714944,32.0001536 C59.6574986,32.1446242 73.8512437,45.9440986 73.999842,62.8471582 Z" id="Oval-Copy-37" fill="#4F8CF8" transform="translate(56.000000, 49.500000) rotate(-225.000000) translate(-56.000000, -49.500000) "></path>
                    </g>
                </g>
                <g id="Group-8" transform="translate(221.000000, 0.000000)" fill-rule="nonzero">
                    <g id="Group-15-Copy-4">
                        <path d="M57.6674153,14.8149871 C61.7853348,14.8149871 63.6783347,13.5773362 64.4777046,10.7103734 C64.525764,10.5380072 64.5501066,10.3602981 64.5501066,10.1818145 C64.550107,9.05717397 63.6043298,8.14547239 62.4376507,8.14547202 L49.3579101,8.14545818 C50.2049959,12.9067167 52.8209101,14.8149871 57.6674153,14.8149871 Z M40.8519081,8.14544917 L36.5924269,8.14544466 C21.0497348,8.14544466 8.44989337,20.2913152 8.44989337,35.2740059 L8.44989337,73 L0,73 L3.75250647e-15,35.2740059 C1.40718993e-15,15.7927104 16.3829876,-2.45253217e-12 36.5924315,0 L62.4376567,2.73631738e-05 C68.2710797,2.91752755e-05 73.0000019,4.55857173 73,10.1818171 C72.9999997,11.074242 72.8782858,11.9627939 72.6379872,12.8246318 C70.790338,19.4512781 65.4230508,22.9604317 57.6674153,22.9604317 C47.9095975,22.9604317 42.1004294,17.6047434 40.8519081,8.14544917 Z" id="Path-7" fill="#395484"></path>
                        <path d="M66.9998433,41.7641019 C67.0196682,44.0836124 65.1554047,45.9800185 62.8358942,45.9998433 C60.5163836,46.0196682 58.6199776,44.1554047 58.6001527,41.8358942 C58.5607657,37.2276052 54.7723948,33.4392343 50.1641058,33.3998473 C47.8445953,33.3800224 45.9803318,31.4836164 46.0001567,29.1641058 C46.0199815,26.8445953 47.9163876,24.9803318 50.2358981,25.0001567 C59.4272349,25.0787151 66.9212849,32.5727651 66.9998433,41.7641019 Z" id="Oval-Copy-36" fill="#4F8CF8" transform="translate(56.500000, 35.500000) rotate(-225.000000) translate(-56.500000, -35.500000) "></path>
                        <path d="M73.999842,62.8471582 C74.0198335,65.1211884 72.1399036,66.9804103 69.8009011,66.9998464 C67.4618986,67.0192826 65.5495562,65.191573 65.5295647,62.9175428 C65.4204669,50.5076679 54.9635416,40.3412127 42.1990989,40.2351454 C39.8600964,40.2157093 37.9801665,38.3564874 38.000158,36.0824572 C38.0201495,33.808427 39.9324919,31.9807174 42.2714944,32.0001536 C59.6574986,32.1446242 73.8512437,45.9440986 73.999842,62.8471582 Z" id="Oval-Copy-37" fill="#4F8CF8" transform="translate(56.000000, 49.500000) rotate(-225.000000) translate(-56.000000, -49.500000) "></path>
                    </g>
                </g>
                <g id="Group-8-Copy-2" transform="translate(608.000000, 175.000000)" fill-rule="nonzero">
                    <g id="Group-15-Copy-4">
                        <path d="M57.6674153,14.8149871 C61.7853348,14.8149871 63.6783347,13.5773362 64.4777046,10.7103734 C64.525764,10.5380072 64.5501066,10.3602981 64.5501066,10.1818145 C64.550107,9.05717397 63.6043298,8.14547239 62.4376507,8.14547202 L49.3579101,8.14545818 C50.2049959,12.9067167 52.8209101,14.8149871 57.6674153,14.8149871 Z M40.8519081,8.14544917 L36.5924269,8.14544466 C21.0497348,8.14544466 8.44989337,20.2913152 8.44989337,35.2740059 L8.44989337,73 L0,73 L3.75250647e-15,35.2740059 C1.40718993e-15,15.7927104 16.3829876,-2.45253217e-12 36.5924315,0 L62.4376567,2.73631738e-05 C68.2710797,2.91752755e-05 73.0000019,4.55857173 73,10.1818171 C72.9999997,11.074242 72.8782858,11.9627939 72.6379872,12.8246318 C70.790338,19.4512781 65.4230508,22.9604317 57.6674153,22.9604317 C47.9095975,22.9604317 42.1004294,17.6047434 40.8519081,8.14544917 Z" id="Path-7" fill="#395484"></path>
                        <path d="M66.9998433,41.7641019 C67.0196682,44.0836124 65.1554047,45.9800185 62.8358942,45.9998433 C60.5163836,46.0196682 58.6199776,44.1554047 58.6001527,41.8358942 C58.5607657,37.2276052 54.7723948,33.4392343 50.1641058,33.3998473 C47.8445953,33.3800224 45.9803318,31.4836164 46.0001567,29.1641058 C46.0199815,26.8445953 47.9163876,24.9803318 50.2358981,25.0001567 C59.4272349,25.0787151 66.9212849,32.5727651 66.9998433,41.7641019 Z" id="Oval-Copy-36" fill="#4F8CF8" transform="translate(56.500000, 35.500000) rotate(-225.000000) translate(-56.500000, -35.500000) "></path>
                        <path d="M73.999842,62.8471582 C74.0198335,65.1211884 72.1399036,66.9804103 69.8009011,66.9998464 C67.4618986,67.0192826 65.5495562,65.191573 65.5295647,62.9175428 C65.4204669,50.5076679 54.9635416,40.3412127 42.1990989,40.2351454 C39.8600964,40.2157093 37.9801665,38.3564874 38.000158,36.0824572 C38.0201495,33.808427 39.9324919,31.9807174 42.2714944,32.0001536 C59.6574986,32.1446242 73.8512437,45.9440986 73.999842,62.8471582 Z" id="Oval-Copy-37" fill="#4F8CF8" transform="translate(56.000000, 49.500000) rotate(-225.000000) translate(-56.000000, -49.500000) "></path>
                    </g>
                </g>
                <g id="Group-9-Copy" transform="translate(411.000000, 114.000000) scale(-1, 1) translate(-411.000000, -114.000000) translate(360.000000, 82.000000)">
                    <g id="Combined-Shape">
                        <use fill="#F2F4F8" xlink:href="#path-7"></use>
                        <path stroke="#FFFFFF" stroke-width="4" d="M19.2605745,24 L28.3122953,8.90492415 C32.3651615,2.14617363 39.7236374,-1.92847784 47.6029449,-1.77699893 L69.8418682,-1.34945784 C81.188599,-1.13131807 90.5074092,7.6821104 91.3572314,18.999075 L91.7585293,24.3431031 C98.798012,25.8471939 104,32.1050096 104,39.5 L104,46 C104,50.9705627 99.9705627,55 95,55 L85.9226202,55 L85.9926882,52.9322662 C85.9975589,52.788531 86,52.6444303 86,52.5 C86,45.5964406 80.4035594,40 73.5,40 C66.5964406,40 61,45.5964406 61,52.5 C61,52.6444303 61.0024411,52.788531 61.0073118,52.9322662 L61.0773798,55 L33.9226202,55 L33.9926882,52.9322662 C33.9975589,52.788531 34,52.6444303 34,52.5 C34,45.5964406 28.4035594,40 21.5,40 C14.5964406,40 9,45.5964406 9,52.5 C9,52.6444303 9.00244114,52.788531 9.0073118,52.9322662 L9.07737978,55 L7.0084591,55 C2.03111866,55 -2,50.9722434 -2,46 L-2,39.5 C-2,30.9395864 4.93958638,24 13.5,24 L19.2605745,24 Z" fill="url(#linearGradient-2)"></path>
                    </g>
                    <path d="M42.8328426,9 L51,9 C53.209139,9 55,10.790861 55,13 L55,26 L29,26 L34.7217266,14.1000261 C36.2206753,10.9825317 39.3737071,9 42.8328426,9 Z" id="Rectangle" fill="#FFFFFF"></path>
                    <path d="M70,9 L78,9 C80.209139,9 82,10.790861 82,13 L82,26 L58,26 L58,21 C58,14.372583 63.372583,9 70,9 Z" id="Rectangle-Copy-5" fill="#FFFFFF" transform="translate(70.000000, 17.500000) scale(-1, 1) translate(-70.000000, -17.500000) "></path>
                    <circle id="Oval" fill="#F2F4F8" cx="21.5" cy="52.5" r="11.5"></circle>
                    <circle id="Oval-Copy-4" fill="#F2F4F8" cx="73.5" cy="52.5" r="11.5"></circle>
                </g>
            </g>
        </g>
    </g>
</svg>